<svg width="60" height="60" viewBox="0 0 60 60" fill="none" xmlns="http://www.w3.org/2000/svg">
<path d="M30 60C46.5685 60 60 46.5685 60 30C60 13.4315 46.5685 0 30 0C13.4315 0 0 13.4315 0 30C0 46.5685 13.4315 60 30 60Z" fill="#3468D1"/>
<path fill-rule="evenodd" clip-rule="evenodd" d="M26.2954 20.5165C26.8736 20.5169 27.4388 20.6886 27.9195 21.0101C28.4002 21.3316 28.7748 21.7884 28.9959 22.3227C29.2171 22.857 29.2748 23.4449 29.1619 24.0121C29.049 24.5792 28.7705 25.1001 28.3616 25.509C27.9527 25.9179 27.4318 26.1965 26.8646 26.3094C26.2975 26.4223 25.7096 26.3646 25.1753 26.1434C24.6409 25.9223 24.1842 25.5476 23.8627 25.067C23.5412 24.5863 23.3694 24.021 23.3691 23.4428C23.3689 23.0584 23.4444 22.6778 23.5914 22.3227C23.7383 21.9675 23.9539 21.6449 24.2257 21.3732C24.4974 21.1014 24.8201 20.8857 25.1753 20.7388C25.5304 20.5918 25.911 20.5163 26.2954 20.5165V20.5165ZM33.3582 20.5165C33.9365 20.5169 34.5017 20.6886 34.9824 21.0101C35.4631 21.3316 35.8376 21.7884 36.0588 22.3227C36.2799 22.857 36.3377 23.4449 36.2248 24.0121C36.1119 24.5792 35.8334 25.1001 35.4245 25.509C35.0156 25.9179 34.4946 26.1965 33.9275 26.3094C33.3603 26.4223 32.7724 26.3646 32.2381 26.1434C31.7038 25.9223 31.247 25.5476 30.9255 25.067C30.604 24.5863 30.4323 24.021 30.4319 23.4428C30.4317 23.0584 30.5072 22.6778 30.6542 22.3227C30.8012 21.9675 31.0167 21.6449 31.2885 21.3732C31.5603 21.1014 31.883 20.8857 32.2381 20.7388C32.5932 20.5918 32.9739 20.5163 33.3582 20.5165ZM33.3582 32.8234C33.9365 32.8238 34.5017 32.9955 34.9824 33.317C35.4631 33.6385 35.8376 34.0952 36.0588 34.6296C36.2799 35.1639 36.3377 35.7518 36.2248 36.319C36.1119 36.8861 35.8334 37.407 35.4245 37.8159C35.0156 38.2248 34.4946 38.5033 33.9275 38.6162C33.3603 38.7291 32.7724 38.6713 32.2381 38.4502C31.7038 38.2291 31.247 37.8545 30.9255 37.3738C30.604 36.8932 30.4323 36.3279 30.4319 35.7497C30.4317 35.3653 30.5072 34.9847 30.6542 34.6296C30.8012 34.2744 31.0167 33.9517 31.2885 33.6799C31.5603 33.4082 31.883 33.1926 32.2381 33.0457C32.5932 32.8987 32.9739 32.8232 33.3582 32.8234ZM26.2954 32.8234C26.8736 32.8238 27.4388 32.9955 27.9195 33.317C28.4002 33.6385 28.7748 34.0952 28.9959 34.6296C29.2171 35.1639 29.2748 35.7518 29.1619 36.319C29.049 36.8861 28.7705 37.407 28.3616 37.8159C27.9527 38.2248 27.4318 38.5033 26.8646 38.6162C26.2975 38.7291 25.7096 38.6713 25.1753 38.4502C24.6409 38.2291 24.1842 37.8545 23.8627 37.3738C23.5412 36.8932 23.3694 36.3279 23.3691 35.7497C23.3689 35.3653 23.4444 34.9847 23.5914 34.6296C23.7383 34.2744 23.9539 33.9517 24.2257 33.6799C24.4974 33.4082 24.8201 33.1926 25.1753 33.0457C25.5304 32.8987 25.911 32.8232 26.2954 32.8234V32.8234ZM22.6628 26.7703C23.2411 26.7706 23.8064 26.9424 24.2871 27.2639C24.7679 27.5855 25.1424 28.0424 25.3635 28.5768C25.5846 29.1113 25.6423 29.6992 25.5293 30.2664C25.4162 30.8336 25.1375 31.3546 24.7285 31.7634C24.3194 32.1722 23.7983 32.4506 23.231 32.5633C22.6638 32.676 22.0758 32.618 21.5415 32.3966C21.0072 32.1752 20.5505 31.8003 20.2293 31.3194C19.908 30.8385 19.7365 30.2732 19.7365 29.6948C19.7365 29.3106 19.8122 28.9302 19.9593 28.5753C20.1064 28.2203 20.3219 27.8978 20.5937 27.6263C20.8654 27.3547 21.188 27.1393 21.5431 26.9924C21.8981 26.8455 22.2786 26.77 22.6628 26.7703ZM36.9891 26.7703C37.5674 26.7706 38.1326 26.9423 38.6132 27.2638C39.0939 27.5853 39.4685 28.0421 39.6896 28.5764C39.9108 29.1107 39.9686 29.6986 39.8557 30.2658C39.7428 30.833 39.4643 31.3539 39.0554 31.7628C38.6465 32.1717 38.1255 32.4502 37.5583 32.5631C36.9912 32.676 36.4033 32.6182 35.869 32.397C35.3347 32.1759 34.8779 31.8014 34.5564 31.3207C34.2349 30.84 34.0631 30.2748 34.0628 29.6965C34.0626 29.3121 34.1381 28.9316 34.2851 28.5764C34.4321 28.2213 34.6476 27.8986 34.9194 27.6268C35.1911 27.355 35.5138 27.1395 35.869 26.9925C36.2241 26.8455 36.6047 26.77 36.9891 26.7703ZM40.3182 21.7268C40.6773 21.7268 41.0283 21.8333 41.3268 22.0327C41.6254 22.2322 41.8581 22.5158 41.9955 22.8475C42.1329 23.1792 42.1688 23.5443 42.0988 23.8964C42.0287 24.2486 41.8558 24.572 41.6019 24.8259C41.348 25.0798 41.0245 25.2527 40.6724 25.3228C40.3202 25.3928 39.9552 25.3569 39.6235 25.2195C39.2918 25.0821 39.0082 24.8494 38.8087 24.5508C38.6093 24.2523 38.5028 23.9013 38.5028 23.5423C38.5028 23.0608 38.6941 22.599 39.0345 22.2585C39.375 21.9181 39.8367 21.7268 40.3182 21.7268ZM40.3182 33.8313C40.6773 33.8313 41.0283 33.9379 41.3268 34.1374C41.6254 34.3369 41.8581 34.6203 41.9955 34.952C42.1329 35.2838 42.1688 35.6488 42.0988 36.001C42.0287 36.3531 41.8558 36.6766 41.6019 36.9305C41.348 37.1844 41.0245 37.3573 40.6724 37.4273C40.3202 37.4974 39.9552 37.4615 39.6235 37.324C39.2918 37.1866 39.0082 36.954 38.8087 36.6554C38.6093 36.3569 38.5028 36.0059 38.5028 35.6468C38.5028 35.1653 38.6941 34.7035 39.0345 34.3631C39.375 34.0226 39.8367 33.8313 40.3182 33.8313ZM19.3319 33.8313C19.691 33.8313 20.042 33.9379 20.3405 34.1374C20.6391 34.3369 20.8718 34.6203 21.0092 34.952C21.1466 35.2838 21.1825 35.6488 21.1125 36.001C21.0424 36.3531 20.8695 36.6766 20.6156 36.9305C20.3617 37.1844 20.0383 37.3573 19.6861 37.4273C19.334 37.4974 18.9689 37.4615 18.6372 37.324C18.3055 37.1866 18.022 36.954 17.8225 36.6554C17.623 36.3569 17.5165 36.0059 17.5165 35.6468C17.5165 35.1653 17.7078 34.7035 18.0482 34.3631C18.3887 34.0226 18.8505 33.8313 19.3319 33.8313ZM19.3319 21.7268C19.691 21.7268 20.042 21.8333 20.3405 22.0327C20.6391 22.2322 20.8718 22.5158 21.0092 22.8475C21.1466 23.1792 21.1825 23.5443 21.1125 23.8964C21.0424 24.2486 20.8695 24.572 20.6156 24.8259C20.3617 25.0798 20.0383 25.2527 19.6861 25.3228C19.334 25.3928 18.9689 25.3569 18.6372 25.2195C18.3055 25.0821 18.022 24.8494 17.8225 24.5508C17.623 24.2523 17.5165 23.9013 17.5165 23.5423C17.5165 23.0608 17.7078 22.599 18.0482 22.2585C18.3887 21.9181 18.8505 21.7268 19.3319 21.7268ZM29.8251 15.6737C30.1841 15.6737 30.5351 15.7801 30.8337 15.9796C31.1322 16.1791 31.3649 16.4626 31.5023 16.7944C31.6397 17.1261 31.6757 17.4911 31.6056 17.8433C31.5356 18.1955 31.3627 18.5188 31.1088 18.7727C30.8549 19.0266 30.5314 19.1996 30.1792 19.2696C29.8271 19.3397 29.4621 19.3038 29.1303 19.1664C28.7986 19.029 28.5151 18.7962 28.3156 18.4977C28.1161 18.1991 28.0096 17.8482 28.0096 17.4891C28.0096 17.0076 28.2009 16.5459 28.5414 16.2054C28.8818 15.8649 29.3436 15.6737 29.8251 15.6737ZM29.8251 39.8828C30.1841 39.8828 30.5351 39.9893 30.8337 40.1888C31.1322 40.3882 31.3649 40.6718 31.5023 41.0035C31.6397 41.3352 31.6757 41.7003 31.6056 42.0525C31.5356 42.4046 31.3627 42.728 31.1088 42.9819C30.8549 43.2358 30.5314 43.4087 30.1792 43.4788C29.8271 43.5488 29.4621 43.5128 29.1303 43.3754C28.7986 43.238 28.5151 43.0054 28.3156 42.7068C28.1161 42.4083 28.0096 42.0573 28.0096 41.6983C28.0096 41.2168 28.2009 40.755 28.5414 40.4146C28.8818 40.0741 29.3436 39.8828 29.8251 39.8828V39.8828ZM37.5942 41.6983C37.8936 41.6983 38.1863 41.787 38.4352 41.9534C38.6841 42.1197 38.8781 42.356 38.9927 42.6326C39.1073 42.9092 39.1373 43.2136 39.0788 43.5073C39.0204 43.8009 38.8763 44.0706 38.6646 44.2823C38.4529 44.494 38.1832 44.6382 37.8895 44.6966C37.5959 44.755 37.2916 44.725 37.015 44.6104C36.7384 44.4958 36.5019 44.3018 36.3356 44.0529C36.1693 43.804 36.0805 43.5114 36.0805 43.212C36.0805 43.0132 36.1197 42.8163 36.1957 42.6326C36.2718 42.449 36.3833 42.2822 36.5239 42.1416C36.6644 42.001 36.8313 41.8895 37.015 41.8135C37.1986 41.7374 37.3954 41.6983 37.5942 41.6983V41.6983ZM22.0559 41.6983C22.3553 41.6983 22.648 41.787 22.8969 41.9534C23.1458 42.1197 23.3399 42.356 23.4544 42.6326C23.569 42.9092 23.599 43.2136 23.5406 43.5073C23.4822 43.8009 23.338 44.0706 23.1263 44.2823C22.9146 44.494 22.6449 44.6382 22.3512 44.6966C22.0576 44.755 21.7533 44.725 21.4767 44.6104C21.2001 44.4958 20.9637 44.3018 20.7973 44.0529C20.631 43.804 20.5422 43.5114 20.5422 43.212C20.5422 43.0132 20.5814 42.8163 20.6574 42.6326C20.7335 42.449 20.845 42.2822 20.9856 42.1416C21.1261 42.001 21.293 41.8895 21.4767 41.8135C21.6603 41.7374 21.8571 41.6983 22.0559 41.6983V41.6983ZM22.0559 14.4634C22.3553 14.4634 22.648 14.5521 22.8969 14.7185C23.1458 14.8848 23.3399 15.1212 23.4544 15.3978C23.569 15.6744 23.599 15.9787 23.5406 16.2724C23.4822 16.566 23.338 16.8358 23.1263 17.0475C22.9146 17.2592 22.6449 17.4033 22.3512 17.4617C22.0576 17.5201 21.7533 17.4902 21.4767 17.3756C21.2001 17.261 20.9637 17.067 20.7973 16.8181C20.631 16.5692 20.5422 16.2765 20.5422 15.9771C20.5422 15.5756 20.7017 15.1906 20.9856 14.9067C21.2694 14.6228 21.6545 14.4634 22.0559 14.4634V14.4634ZM37.5942 14.4634C37.8936 14.4634 38.1863 14.5521 38.4352 14.7185C38.6841 14.8848 38.8781 15.1212 38.9927 15.3978C39.1073 15.6744 39.1373 15.9787 39.0788 16.2724C39.0204 16.566 38.8763 16.8358 38.6646 17.0475C38.4529 17.2592 38.1832 17.4033 37.8895 17.4617C37.5959 17.5201 37.2916 17.4902 37.015 17.3756C36.7384 17.261 36.5019 17.067 36.3356 16.8181C36.1693 16.5692 36.0805 16.2765 36.0805 15.9771C36.0805 15.5756 36.24 15.1906 36.5239 14.9067C36.8077 14.6228 37.1928 14.4634 37.5942 14.4634V14.4634ZM45.4645 27.9805C45.7639 27.9805 46.0565 28.0693 46.3055 28.2356C46.5544 28.402 46.7484 28.6384 46.863 28.915C46.9776 29.1916 47.0075 29.4959 46.9491 29.7895C46.8907 30.0831 46.7466 30.3529 46.5349 30.5646C46.3232 30.7763 46.0534 30.9205 45.7598 30.9789C45.4662 31.0373 45.1618 31.0073 44.8852 30.8928C44.6086 30.7782 44.3722 30.5841 44.2059 30.3352C44.0396 30.0862 43.9508 29.7936 43.9508 29.4942C43.9508 29.0928 44.1103 28.7077 44.3941 28.4239C44.678 28.14 45.0631 27.9805 45.4645 27.9805V27.9805ZM14.1874 27.9805C14.4867 27.9805 14.7794 28.0693 15.0283 28.2356C15.2773 28.402 15.4713 28.6384 15.5859 28.915C15.7004 29.1916 15.7304 29.4959 15.672 29.7895C15.6136 30.0831 15.4694 30.3529 15.2577 30.5646C15.046 30.7763 14.7763 30.9205 14.4827 30.9789C14.189 31.0373 13.8847 31.0073 13.6081 30.8928C13.3315 30.7782 13.0951 30.5841 12.9287 30.3352C12.7624 30.0862 12.6737 29.7936 12.6737 29.4942C12.6737 29.0928 12.8331 28.7077 13.117 28.4239C13.4009 28.14 13.7859 27.9805 14.1874 27.9805V27.9805ZM13.0782 18.6994C13.3176 18.6994 13.5516 18.7703 13.7506 18.9033C13.9497 19.0363 14.1048 19.2253 14.1964 19.4465C14.288 19.6676 14.312 19.911 14.2653 20.1458C14.2186 20.3806 14.1033 20.5962 13.934 20.7655C13.7648 20.9347 13.5491 21.05 13.3143 21.0967C13.0796 21.1434 12.8362 21.1195 12.6151 21.0279C12.3939 20.9363 12.2049 20.7811 12.0719 20.582C11.9389 20.383 11.8679 20.149 11.8679 19.9097C11.8679 19.5887 11.9955 19.2809 12.2224 19.0539C12.4494 18.8269 12.7572 18.6994 13.0782 18.6994ZM13.0782 38.0708C13.3176 38.0708 13.5516 38.1417 13.7506 38.2747C13.9497 38.4077 14.1048 38.5968 14.1964 38.818C14.288 39.0391 14.312 39.2825 14.2653 39.5172C14.2186 39.752 14.1033 39.9676 13.934 40.1369C13.7648 40.3061 13.5491 40.4214 13.3143 40.4681C13.0796 40.5148 12.8362 40.4909 12.6151 40.3993C12.3939 40.3077 12.2049 40.1525 12.0719 39.9534C11.9389 39.7544 11.8679 39.5204 11.8679 39.2811C11.8679 38.9601 11.9955 38.6523 12.2224 38.4253C12.4494 38.1983 12.7572 38.0708 13.0782 38.0708ZM46.5754 38.0708C46.8147 38.0708 47.0487 38.1417 47.2478 38.2747C47.4468 38.4077 47.6019 38.5968 47.6935 38.818C47.7851 39.0391 47.8091 39.2825 47.7624 39.5172C47.7157 39.752 47.6004 39.9676 47.4312 40.1369C47.2619 40.3061 47.0462 40.4214 46.8115 40.4681C46.5767 40.5148 46.3334 40.4909 46.1122 40.3993C45.8911 40.3077 45.702 40.1525 45.569 39.9534C45.4361 39.7544 45.3651 39.5204 45.3651 39.2811C45.3651 38.9601 45.4926 38.6523 45.7196 38.4253C45.9465 38.1983 46.2544 38.0708 46.5754 38.0708ZM46.5754 18.6994C46.8147 18.6994 47.0487 18.7703 47.2478 18.9033C47.4468 19.0363 47.6019 19.2253 47.6935 19.4465C47.7851 19.6676 47.8091 19.911 47.7624 20.1458C47.7157 20.3806 47.6004 20.5962 47.4312 20.7655C47.2619 20.9347 47.0462 21.05 46.8115 21.0967C46.5767 21.1434 46.3334 21.1195 46.1122 21.0279C45.8911 20.9363 45.702 20.7811 45.569 20.582C45.4361 20.383 45.3651 20.149 45.3651 19.9097C45.3651 19.5887 45.4926 19.2809 45.7196 19.0539C45.9465 18.8269 46.2544 18.6994 46.5754 18.6994ZM29.8268 9.01709C30.0662 9.01709 30.3001 9.08803 30.4992 9.22102C30.6982 9.354 30.8534 9.54311 30.945 9.76426C31.0366 9.98542 31.0605 10.2287 31.0138 10.4635C30.9671 10.6983 30.8519 10.9139 30.6826 11.0831C30.5133 11.2524 30.2977 11.3677 30.0629 11.4144C29.8281 11.4611 29.5848 11.4372 29.3636 11.3456C29.1425 11.254 28.9535 11.0988 28.8205 10.8997C28.6875 10.7007 28.6165 10.4667 28.6165 10.2274C28.6165 9.90638 28.744 9.59855 28.971 9.37158C29.198 9.14461 29.5058 9.01709 29.8268 9.01709ZM29.8268 47.7599C30.0662 47.7599 30.3001 47.8309 30.4992 47.9639C30.6982 48.0969 30.8534 48.2859 30.945 48.5071C31.0366 48.7282 31.0605 48.9716 31.0138 49.2063C30.9671 49.4411 30.8519 49.6568 30.6826 49.8261C30.5133 49.9953 30.2977 50.1105 30.0629 50.1572C29.8281 50.2039 29.5848 50.18 29.3636 50.0884C29.1425 49.9968 28.9535 49.8417 28.8205 49.6426C28.6875 49.4436 28.6165 49.2097 28.6165 48.9703C28.6165 48.6493 28.744 48.3414 28.971 48.1144C29.198 47.8874 29.5058 47.7599 29.8268 47.7599ZM40.5205 46.9526C40.7199 46.9526 40.9148 47.0116 41.0805 47.1224C41.2463 47.2331 41.3755 47.3906 41.4518 47.5748C41.5281 47.759 41.548 47.9617 41.5091 48.1572C41.4702 48.3527 41.3742 48.5323 41.2333 48.6732C41.0923 48.8142 40.9127 48.9103 40.7172 48.9491C40.5216 48.988 40.319 48.9681 40.1348 48.8918C39.9506 48.8155 39.7932 48.6863 39.6824 48.5206C39.5716 48.3548 39.5125 48.1598 39.5125 47.9605C39.5116 47.8275 39.537 47.6958 39.5873 47.5727C39.6375 47.4496 39.7116 47.3377 39.8053 47.2433C39.899 47.149 40.0104 47.0742 40.1332 47.0231C40.2559 46.972 40.3876 46.9457 40.5205 46.9457V46.9526ZM19.1314 46.9526C19.3307 46.9526 19.5256 47.0116 19.6914 47.1224C19.8571 47.2331 19.9863 47.3906 20.0626 47.5748C20.1389 47.759 20.1589 47.9617 20.12 48.1572C20.0811 48.3527 19.9851 48.5323 19.8441 48.6732C19.7032 48.8142 19.5236 48.9103 19.328 48.9491C19.1325 48.988 18.9298 48.9681 18.7456 48.8918C18.5614 48.8155 18.404 48.6863 18.2932 48.5206C18.1825 48.3548 18.1234 48.1598 18.1234 47.9605C18.1225 47.8275 18.1479 47.6958 18.1981 47.5727C18.2484 47.4496 18.3225 47.3377 18.4162 47.2433C18.5098 47.149 18.6213 47.0742 18.744 47.0231C18.8668 46.972 18.9984 46.9457 19.1314 46.9457V46.9526ZM19.1314 10.2359C19.3307 10.2359 19.5255 10.295 19.6912 10.4057C19.8569 10.5163 19.9861 10.6737 20.0625 10.8578C20.1388 11.0419 20.1589 11.2445 20.1201 11.4399C20.0814 11.6354 19.9855 11.8151 19.8447 11.9561C19.7039 12.0971 19.5245 12.1932 19.3291 12.2323C19.1336 12.2714 18.931 12.2517 18.7468 12.1757C18.5626 12.0997 18.405 11.9707 18.2941 11.8052C18.1831 11.6397 18.1237 11.4449 18.1234 11.2456C18.1234 10.9781 18.2295 10.7216 18.4185 10.5323C18.6075 10.343 18.8639 10.2364 19.1314 10.2359ZM40.5205 10.2359C40.7198 10.2359 40.9146 10.295 41.0803 10.4057C41.2461 10.5163 41.3753 10.6737 41.4516 10.8578C41.528 11.0419 41.548 11.2445 41.5093 11.4399C41.4705 11.6354 41.3747 11.8151 41.2339 11.9561C41.0931 12.0971 40.9136 12.1932 40.7182 12.2323C40.5228 12.2714 40.3202 12.2517 40.1359 12.1757C39.9517 12.0997 39.7942 11.9707 39.6832 11.8052C39.5723 11.6397 39.5129 11.4449 39.5125 11.2456C39.5125 10.9781 39.6186 10.7216 39.8076 10.5323C39.9966 10.343 40.253 10.2364 40.5205 10.2359ZM51.0137 28.5942C51.213 28.5942 51.4079 28.6534 51.5737 28.7641C51.7394 28.8749 51.8686 29.0323 51.9449 29.2164C52.0212 29.4006 52.0412 29.6034 52.0023 29.7989C51.9634 29.9945 51.8674 30.174 51.7264 30.315C51.5854 30.4559 51.4058 30.552 51.2103 30.5909C51.0148 30.6298 50.8121 30.6098 50.6279 30.5336C50.4437 30.4573 50.2863 30.328 50.1755 30.1622C50.0648 29.9964 50.0056 29.8016 50.0056 29.6022C50.0056 29.3349 50.1118 29.0785 50.3009 28.8895C50.4899 28.7004 50.7463 28.5942 51.0137 28.5942V28.5942ZM8.63822 28.5942C8.83816 28.5942 9.03359 28.6537 9.19964 28.7651C9.36569 28.8764 9.49485 29.0347 9.57072 29.2197C9.64659 29.4047 9.66575 29.6081 9.62573 29.804C9.58571 29.9999 9.48834 30.1795 9.346 30.3199C9.20365 30.4603 9.02275 30.5551 8.82632 30.5925C8.62989 30.6298 8.4268 30.6079 8.24287 30.5295C8.05893 30.4511 7.90249 30.3197 7.79339 30.1522C7.6843 29.9846 7.6275 29.7884 7.63022 29.5885C7.63022 29.3212 7.73643 29.0648 7.92546 28.8758C8.1145 28.6867 8.37088 28.5805 8.63822 28.5805V28.5942Z" fill="white"/>
</svg>
