<svg width="60" height="61" viewBox="0 0 60 61" fill="none" xmlns="http://www.w3.org/2000/svg">
<path d="M59.1026 37.785C57.668 43.5411 54.5586 48.7425 50.1679 52.7314C45.7771 56.7203 40.302 59.3176 34.4351 60.1949C28.5681 61.0721 22.5728 60.1899 17.2073 57.6597C11.8417 55.1296 7.34698 51.0652 4.29142 45.9805C1.23586 40.8958 -0.24327 35.0192 0.0410771 29.0938C0.325425 23.1685 2.36048 17.4605 5.88889 12.6918C9.4173 7.92302 14.2806 4.30769 19.8637 2.30294C25.4469 0.298205 31.4991 -0.0058934 37.2551 1.42911C44.9732 3.35327 51.6109 8.26452 55.7081 15.0825C59.8052 21.9005 61.0263 30.0668 59.1026 37.785Z" fill="url(#paint0_linear_9_216)"/>
<path d="M44.2841 26.7926C44.8699 22.8088 41.8469 20.6524 37.6748 19.2223L39.0346 13.8084L35.7531 12.9897L34.4411 18.2632C33.5745 18.0525 32.6839 17.8419 31.7933 17.6535L33.1052 12.356L29.8236 11.5356L28.4877 16.9256C27.7615 16.7612 27.0582 16.5973 26.3776 16.434V16.4152L21.8304 15.2899L20.9637 18.8061C20.9637 18.8061 23.4009 19.3679 23.3615 19.3919C23.8183 19.4452 24.2352 19.6774 24.521 20.0376C24.8067 20.3978 24.9379 20.8567 24.8859 21.3136L23.3444 27.4793C23.4657 27.5038 23.5836 27.5429 23.6955 27.5958C23.5758 27.5754 23.4583 27.5439 23.3444 27.5016L21.1881 36.1269C21.0907 36.4277 20.8783 36.6778 20.5973 36.8228C20.3163 36.9678 19.9894 36.9959 19.6878 36.901C19.7117 36.9473 17.29 36.3153 17.29 36.3153L15.6492 40.0833L19.931 41.1606C20.7274 41.3712 21.5015 41.5596 22.274 41.7703L20.9141 47.2304L24.1956 48.0508L25.5555 42.6369C26.4462 42.8716 27.3368 43.1062 28.1811 43.322L26.8452 48.7119L30.1268 49.5323L31.4953 44.0653C37.1198 45.1204 41.3383 44.6973 43.0972 39.6123C44.5273 35.5343 43.027 33.1673 40.0743 31.6207C41.2136 31.3983 42.2465 30.8032 43.0103 29.929C43.7741 29.0549 44.2252 27.9514 44.2927 26.7926H44.2841ZM36.7602 37.3395C35.7531 41.4175 28.8611 39.2149 26.6346 38.6514L28.4398 31.41C30.6663 31.9718 37.8375 33.0748 36.7602 37.3395ZM37.7878 26.7206C36.8509 30.4475 31.1322 28.5481 29.2807 28.0805L30.9215 21.5174C32.7729 21.9867 38.7503 22.8533 37.7895 26.7206H37.7878Z" fill="white"/>
<defs>
<linearGradient id="paint0_linear_9_216" x1="29.9998" y1="0.53833" x2="29.9998" y2="60.5247" gradientUnits="userSpaceOnUse">
<stop stop-color="#F9AA4B"/>
<stop offset="1" stop-color="#F7931A"/>
</linearGradient>
</defs>
</svg>
