<svg width="60" height="61" viewBox="0 0 60 61" fill="none" xmlns="http://www.w3.org/2000/svg">
<path d="M30 60.5298C46.5685 60.5298 60 47.0983 60 30.5298C60 13.9612 46.5685 0.529785 30 0.529785C13.4315 0.529785 0 13.9612 0 30.5298C0 47.0983 13.4315 60.5298 30 60.5298Z" fill="#D2D2D2"/>
<path fill-rule="evenodd" clip-rule="evenodd" d="M29.8131 13.8223C33.0892 13.8152 36.2938 14.7801 39.0213 16.595C41.7487 18.41 43.8764 20.9934 45.1351 24.018C46.3937 27.0427 46.7267 30.3728 46.092 33.5868C45.4572 36.8008 43.8832 39.7542 41.5691 42.0733C39.2551 44.3924 36.3051 45.973 33.0924 46.6147C29.8798 47.2565 26.549 46.9305 23.5215 45.6785C20.4941 44.4264 17.9062 42.3044 16.0854 39.581C14.2645 36.8575 13.2926 33.6549 13.2926 30.3788C13.2926 25.994 15.032 21.7883 18.1291 18.6843C21.2263 15.5804 25.4283 13.8318 29.8131 13.8223V13.8223ZM20.8868 29.7223L29.1531 21.4389C29.2373 21.3475 29.3394 21.2745 29.4532 21.2246C29.5669 21.1747 29.6898 21.149 29.814 21.149C29.9382 21.149 30.0611 21.1747 30.1748 21.2246C30.2886 21.2745 30.3907 21.3475 30.4748 21.4389L38.736 29.7171C38.8273 29.8029 38.8998 29.9067 38.9491 30.0218C38.9984 30.137 39.0233 30.2611 39.0223 30.3863C39.0214 30.5116 38.9945 30.6353 38.9435 30.7496C38.8924 30.864 38.8183 30.9666 38.7257 31.051L30.48 39.3154C30.3938 39.4075 30.2894 39.4807 30.1734 39.5303C30.0574 39.58 29.9324 39.6051 29.8062 39.604C29.6801 39.6028 29.5555 39.5756 29.4405 39.5238C29.3254 39.4721 29.2223 39.3971 29.1377 39.3035L20.892 31.0405C20.8008 30.9568 20.728 30.8551 20.678 30.7419C20.628 30.6286 20.6019 30.5064 20.6014 30.3826C20.601 30.2588 20.6261 30.1363 20.6752 30.0226C20.7243 29.909 20.7963 29.8068 20.8868 29.7223V29.7223Z" fill="#4048E9"/>
<path fill-rule="evenodd" clip-rule="evenodd" d="M29.8131 13.8223C33.0892 13.8152 36.2938 14.7801 39.0213 16.595C41.7487 18.41 43.8764 20.9934 45.1351 24.018C46.3937 27.0427 46.7267 30.3728 46.092 33.5868C45.4572 36.8008 43.8832 39.7542 41.5691 42.0733C39.2551 44.3924 36.3051 45.973 33.0924 46.6147C29.8798 47.2565 26.549 46.9305 23.5216 45.6785C20.4941 44.4264 17.9062 42.3044 16.0854 39.581C14.2645 36.8575 13.2926 33.6549 13.2926 30.3788C13.2926 25.994 15.032 21.7883 18.1291 18.6843C21.2263 15.5804 25.4283 13.8318 29.8131 13.8223V13.8223ZM20.8868 29.7223L29.1531 21.4389C32.856 17.8526 36.9189 14.6092 39.396 16.8104C42.5305 19.2576 44.8375 22.6088 46.0046 26.4103C47.1669 30.9189 45.7011 37.8738 43.0303 40.3184C45.9326 35.2715 39.396 30.384 39.396 30.384C39.396 30.384 31.1829 38.8252 27.5006 41.9743C23.7291 45.204 21.1183 45.391 19.5703 43.9613C18.8606 43.3064 15.936 40.6492 15.936 40.6492C15.5639 39.4711 15.4899 38.2189 15.7206 37.0051C15.9512 35.7914 16.4794 34.6539 17.2577 33.6944C19.1434 31.5687 20.2148 30.3961 20.8868 29.7223Z" fill="#3B6EF9"/>
</svg>
