<?xml version="1.0" standalone="no"?>
<!DOCTYPE svg PUBLIC "-//W3C//DTD SVG 1.1//EN" "http://www.w3.org/Graphics/SVG/1.1/DTD/svg11.dtd" >
<svg xmlns="http://www.w3.org/2000/svg">
<metadata>Generated by IcoMoon</metadata>
<defs>
<font id="app-icon" horiz-adv-x="1024">
<font-face units-per-em="1024" ascent="960" descent="-64" />
<missing-glyph horiz-adv-x="1024" />
<glyph unicode="&#x20;" horiz-adv-x="512" d="" />
<glyph unicode="&#xe900;" glyph-name="books" d="M1018.74 212.108c5.659 6.424 8.873 34.068-16.365 36.172h-846.223c-86.1 0-156.152-70.046-156.152-156.154 0-86.085 70.052-156.127 156.152-156.127h846.223c29.844 3.365 21.939 30.020 16.152 36.404-72.842 80.509-72.758 156.659 0.213 239.704zM957.453-20.424h-801.301c-62.073 0-112.571 50.489-112.571 112.55 0 62.065 50.498 112.577 112.571 112.577h801.896c-50.454-75.619-50.667-151.065-0.596-225.127zM21.625 291.863h846.221c86.1 0 156.154 70.046 156.154 156.131 0 86.104-70.052 156.152-156.154 156.152h-473.399v43.574h607.928c29.844 3.365 21.939 30.020 16.152 36.404-72.842 80.511-72.756 156.662 0.213 239.704 5.659 6.424 8.873 34.072-16.365 36.174h-846.223c-86.1-0.002-156.152-70.050-156.152-156.154 0-86.087 70.052-156.131 156.152-156.131h27.836v-43.574h-162.363c-25.238-2.102-22.024-29.746-16.365-36.172 72.971-83.044 73.055-159.194 0.213-239.706-5.787-6.382-13.692-33.038 16.152-36.402zM156.152 691.294c-62.073 0-112.571 50.489-112.571 112.554 0 62.063 50.498 112.573 112.571 112.573h801.896c-50.454-75.617-50.667-151.063-0.596-225.13h-563.006v112.567c0 12.041-9.747 21.788-21.79 21.788h-166.879c-12.046 0-21.79-9.747-21.79-21.788v-112.565h-27.836zM350.866 782.071v-272.259l-48.201 37.767c-3.958 3.087-8.704 4.637-13.448 4.637-4.746 0-9.492-1.551-13.45-4.637l-48.199-37.767v272.259h123.298zM183.988 560.569v-95.502c-1.262-18.963 13.162-37.531 35.238-17.149l69.991 54.83 69.989-54.83c22.929-18.58 36.994-1.093 35.24 17.149v95.502h473.399c62.073 0 112.571-50.512 112.571-112.575s-50.498-112.554-112.571-112.554h-801.299c50.074 74.064 49.858 149.512-0.596 225.132h118.036z" />
<glyph unicode="&#xe901;" glyph-name="translation" d="M245.333 832c-64.704 0-117.333-52.629-117.333-117.333v-426.667c0-64.704 52.629-117.333 117.333-117.333h11.125c5.397-59.712 55.755-106.667 116.875-106.667h405.333c64.704 0 117.333 52.629 117.333 117.333v426.667c0 64.704-52.629 117.333-117.333 117.333h-11.125c-5.397 59.712-55.755 106.667-116.875 106.667h-405.333zM373.333 725.375c17.685 0 32-14.315 32-32v-10.708h74.667c17.685 0 32-14.315 32-32s-14.315-32-32-32h-12.417c-4.821-47.637-20.513-86.111-46.625-114.25-2.197-3.136-4.884-5.844-8.042-8.042-34.219-31.744-83.466-48.375-146.25-48.375-17.685 0-32 14.315-32 32s14.315 32 32 32c19.328 0 36.521 1.729 51.625 5.292-17.323 11.52-29.13 22.942-31.583 25.417-12.501 12.48-12.501 32.77 0 45.25 12.48 12.48 32.707 12.499 45.208 0.083 7.211-7.125 29.035-25.106 49.75-31.25 11.499 16 18.509 36.679 21.667 61.917h-136.667c-17.685 0-32 14.315-32 32s14.315 32 32 32h74.667v10.667c0 17.685 14.315 32 32 32zM629.333 640c17.664 0 32-14.336 32-32s-14.336-32-32-32c-17.664 0-32 14.336-32 32s14.336 32 32 32zM544 533.333c17.664 0 32-14.336 32-32s-14.336-32-32-32c-17.664 0-32 14.336-32 32s14.336 32 32 32zM640 469.333c12.587 0 23.983-7.398 29.167-18.875l96-213.333c7.253-16.128 0.065-35.038-16.042-42.292-4.267-1.92-8.689-2.875-13.083-2.875-12.203 0-23.875 7.055-29.208 18.917l-8.333 18.458h-117l-8.333-18.458c-7.232-16.107-26.142-23.338-42.292-16.042-16.107 7.253-23.295 26.185-16.042 42.292l96 213.333c5.184 11.499 16.58 18.875 29.167 18.875zM458.667 426.667c17.664 0 32-14.336 32-32s-14.336-32-32-32c-17.664 0-32 14.336-32 32s14.336 32 32 32zM640 359.375l-29.708-66.042h59.417l-29.708 66.042zM373.333 320c17.664 0 32-14.336 32-32s-14.336-32-32-32c-17.664 0-32 14.336-32 32s14.336 32 32 32z" />
<glyph unicode="&#xe902;" glyph-name="home" d="M510.958 874.667c-7.135-0.251-13.63-2.8-18.815-6.925l0.065 0.050-303.208-238.875c-38.483-30.328-61-76.671-61-125.667v-407.25c0-29.090 24.243-53.333 53.333-53.333h213.333c29.090 0 53.333 24.243 53.333 53.333v213.333c0 6.294 4.372 10.667 10.667 10.667h106.667c6.294 0 10.667-4.372 10.667-10.667v-213.333c0-29.090 24.243-53.333 53.333-53.333h213.333c29.090 0 53.333 24.243 53.333 53.333v407.25c0 48.995-22.517 95.339-61 125.667l-303.208 238.875c-5.398 4.295-12.315 6.89-19.838 6.89-0.35 0-0.699-0.006-1.046-0.017l0.051 0.001zM512 801.917l283.417-223.292c23.128-18.227 36.583-45.949 36.583-75.375v-396.583h-192v202.667c0 40.852-33.814 74.667-74.667 74.667h-106.667c-40.852 0-74.667-33.814-74.667-74.667v-202.667h-192v396.583c0 29.426 13.456 57.148 36.583 75.375l283.417 223.292z" />
<glyph unicode="&#xe903;" glyph-name="home-fill" d="M842.667 42.667h-192c-29.461 0-53.333 23.872-53.333 53.333v192c0 23.573-19.093 42.667-42.667 42.667h-85.333c-23.573 0-42.667-19.093-42.667-42.667v-192c0-29.461-23.872-53.333-53.333-53.333h-192c-29.461 0-53.333 23.872-53.333 53.333v407.189c0 49.045 22.485 95.381 60.992 125.717l303.189 238.912c11.627 9.131 28.011 9.131 39.616 0l303.232-238.912c38.507-30.336 60.971-76.651 60.971-125.675v-407.232c0-29.461-23.872-53.333-53.333-53.333z" />
<glyph unicode="&#xe904;" glyph-name="shop" d="M256 853.333c-8.39-0.003-16.024-3.235-21.729-8.519l0.021 0.019-138.667-128c-6.335-5.863-10.288-14.219-10.292-23.499v-85.334c0-41.33 16.311-78.839 42.667-107.208v-447.458c0.002-17.672 14.328-31.998 32-32h704c17.672 0.002 31.998 14.328 32 32v0 447.417c26.379 28.375 42.708 65.899 42.708 107.25v85.333h-0.083c0 0.008 0 0.017 0 0.027 0 9.265-3.937 17.611-10.23 23.455l-0.020 0.018-138.667 128c-5.684 5.265-13.319 8.497-21.708 8.5h-512.001zM268.5 789.333h487l69.333-64h-625.667l69.333 64zM149.333 661.333h199.083v-53.333c0-0.084 0-0.166 0-0.25-0.142-52.807-43.753-95.75-99.5-95.75-55.838 0-99.583 43.075-99.583 96v53.333zM412.458 661.333h199.125v-53.333c0-52.925-43.746-96-99.583-96-55.747 0-99.4 42.943-99.542 95.75 0 0.084 0 0.166 0 0.25v53.333zM675.583 661.333h199.125v-53.333c0-52.925-43.746-96-99.583-96s-99.542 43.075-99.542 96v53.333zM643.583 518.25c29.73-41.422 76.5-70.25 131.542-70.25 19.974 0 39.087 3.73 56.875 10.25v-372.917h-341.333v266.667c-0.002 17.672-14.328 31.998-32 32h-170.667c-17.672-0.002-31.998-14.328-32-32v0-266.667h-64v372.917c17.798-6.529 36.929-10.25 56.917-10.25 53.64 0 101.575 25.813 131.5 65.458 29.936-39.657 77.934-65.458 131.583-65.458 55.050 0 101.855 28.818 131.583 70.25zM586.667 384c-17.672-0.002-31.998-14.328-32-32v0-149.333c0.002-17.672 14.328-31.998 32-32h149.334c17.672 0.002 31.998 14.328 32 32v0 149.333c-0.002 17.672-14.328 31.998-32 32h-149.334zM320 320h106.667v-234.667h-106.667v234.667zM618.667 320h85.333v-85.333h-85.333v85.333z" />
<glyph unicode="&#xe905;" glyph-name="shop-fill" d="M256 853.333c-8.107 0-15.777-2.995-21.75-8.542l-106.25-98.125h768l-106.25 98.125c-5.973 5.547-13.643 8.542-21.75 8.542h-512zM85.333 682.667v-49.083c0-66.987 54.185-121.583 120.958-121.583 66.56 0 120.75 54.597 120.75 121.583v49.083h-241.708zM391.042 682.667v-49.083c0-66.987 54.398-121.583 120.958-121.583s120.958 54.597 120.958 121.583v49.083h-241.917zM696.958 682.667v-49.083c0-66.987 54.19-121.583 120.75-121.583 66.773 0 120.958 54.597 120.958 121.583v49.083h-241.708zM359.042 529.292c-33.28-49.067-89.39-81.292-152.75-81.292-27.947 0-54.398 6.193-78.292 17.5v-412.167c0-17.707 14.293-32 32-32h96v320c0 11.733 9.6 21.333 21.333 21.333h170.667c11.733 0 21.333-9.6 21.333-21.333v-320h394.667c17.707 0 32 14.293 32 32v412.167c-23.893-11.307-50.345-17.5-78.292-17.5-63.36 0-119.47 32.225-152.75 81.292-33.28-49.067-89.385-81.292-152.958-81.292s-119.678 32.225-152.958 81.292zM597.333 362.667h149.333c11.733 0 21.333-9.6 21.333-21.333v-149.333c0-11.733-9.6-21.333-21.333-21.333h-149.333c-11.733 0-21.333 9.6-21.333 21.333v149.333c0 11.733 9.6 21.333 21.333 21.333z" />
<glyph unicode="&#xe906;" glyph-name="cart" d="M74.667 832c-0.135 0.002-0.293 0.003-0.453 0.003-17.675 0-32.003-14.328-32.003-32.003s14.328-32.003 32.003-32.003c0.159 0 0.318 0.001 0.477 0.003h58.768c15.529 0 28.474-10.729 31.417-26l6.375-33.333 68.792-361.292c12.44-65.185 69.871-112.708 136.25-112.708h399.417c66.379 0 123.834 47.506 136.25 112.708l68.792 361.292c0.361 1.803 0.567 3.876 0.567 5.997 0 17.668-14.317 31.992-31.982 32.003h-720.209l-1.375 7.292c-8.6 45.070-48.401 78.042-94.292 78.042h-58.792zM241.333 682.667h669.333l-61.583-323.333c-6.742-35.405-37.312-60.667-73.375-60.667h-399.417c-36.050 0-66.6 25.263-73.375 60.667v0.042l-61.583 323.292zM426.667 192c-35.346 0-64-28.654-64-64s28.654-64 64-64v0c35.346 0 64 28.654 64 64s-28.654 64-64 64v0zM725.333 192c-35.346 0-64-28.654-64-64s28.654-64 64-64v0c35.346 0 64 28.654 64 64s-28.654 64-64 64v0z" />
<glyph unicode="&#xe907;" glyph-name="cart-fill" d="M74.667 832c-0.135 0.002-0.293 0.003-0.453 0.003-17.675 0-32.003-14.328-32.003-32.003s14.328-32.003 32.003-32.003c0.159 0 0.318 0.001 0.477 0.003h58.768c15.529 0 28.474-10.729 31.417-26l6.292-32.958c0.022-0.125 0.018-0.25 0.042-0.375l68.833-361.292c12.459-65.323 69.754-112.708 136.25-112.708h399.417c66.496 0 123.813 47.386 136.25 112.708l68.833 361.333c1.771 9.365-0.712 19.015-6.792 26.375-6.080 7.339-15.131 11.583-24.667 11.583h-720.208l-1.375 7.292c-8.6 45.070-48.401 78.042-94.292 78.042h-58.792zM426.667 192c-35.346 0-64-28.654-64-64s28.654-64 64-64v0c35.346 0 64 28.654 64 64s-28.654 64-64 64v0zM725.333 192c-35.346 0-64-28.654-64-64s28.654-64 64-64v0c35.346 0 64 28.654 64 64s-28.654 64-64 64v0z" />
<glyph unicode="&#xe908;" glyph-name="cart-add" d="M74.667 832c-0.135 0.002-0.293 0.003-0.453 0.003-17.675 0-32.003-14.328-32.003-32.003s14.328-32.003 32.003-32.003c0.159 0 0.318 0.001 0.477 0.003h58.768c15.529 0 28.474-10.729 31.417-26l6.292-33c0.018-0.098 0.023-0.194 0.042-0.292l68.833-361.333c12.437-65.323 69.754-112.708 136.25-112.708h399.458c66.496 0 123.75 47.386 136.208 112.708l68.833 361.333c1.749 9.344-0.733 19.015-6.792 26.375-6.080 7.339-15.131 11.583-24.667 11.583h-720.208l-1.375 7.292c-8.6 45.070-48.401 78.042-94.292 78.042h-58.792zM565.333 618.667c17.685 0 32-14.315 32-32v-53.333h53.333c17.685 0 32-14.315 32-32s-14.315-32-32-32h-53.333v-53.333c0-17.685-14.315-32-32-32s-32 14.315-32 32v53.333h-53.333c-17.685 0-32 14.315-32 32s14.315 32 32 32h53.333v53.333c0 17.685 14.315 32 32 32zM426.667 192c-35.346 0-64-28.654-64-64s28.654-64 64-64v0c35.346 0 64 28.654 64 64s-28.654 64-64 64v0zM725.333 192c-35.346 0-64-28.654-64-64s28.654-64 64-64v0c35.346 0 64 28.654 64 64s-28.654 64-64 64v0z" />
<glyph unicode="&#xe909;" glyph-name="about" d="M512 874.667c-235.263 0-426.667-191.404-426.667-426.667s191.404-426.667 426.667-426.667c235.263 0 426.667 191.404 426.667 426.667s-191.404 426.667-426.667 426.667zM512 810.667c200.674 0 362.667-161.992 362.667-362.667s-161.992-362.667-362.667-362.667c-200.674 0-362.667 161.992-362.667 362.667s161.992 362.667 362.667 362.667zM511.5 661.792c-17.459-0.281-31.503-14.5-31.503-31.999 0-0.161 0.001-0.323 0.004-0.483v0.024-213.333c-0.002-0.135-0.003-0.293-0.003-0.453 0-17.675 14.328-32.003 32.003-32.003s32.003 14.328 32.003 32.003c0 0.159-0.001 0.318-0.003 0.477v-0.024 213.333c0.002 0.137 0.003 0.298 0.003 0.459 0 17.675-14.328 32.003-32.003 32.003-0.176 0-0.351-0.001-0.527-0.004h0.026zM512 320c-23.564 0-42.667-19.103-42.667-42.667s19.103-42.667 42.667-42.667v0c23.564 0 42.667 19.103 42.667 42.667s-19.103 42.667-42.667 42.667v0z" />
<glyph unicode="&#xe90a;" glyph-name="about-fill" d="M512 874.667c-235.264 0-426.667-191.403-426.667-426.667s191.403-426.667 426.667-426.667 426.667 191.403 426.667 426.667-191.403 426.667-426.667 426.667zM544 245.333c0-17.664-14.336-32-32-32s-32 14.336-32 32v234.667c0 17.664 14.336 32 32 32s32-14.336 32-32v-234.667zM512 576c-23.573 0-42.667 19.093-42.667 42.667s19.093 42.667 42.667 42.667 42.667-19.093 42.667-42.667c0-23.573-19.093-42.667-42.667-42.667z" />
<glyph unicode="&#xe90b;" glyph-name="like" d="M320 810.667c-129.228 0-234.667-105.439-234.667-234.667 0-87.385 65.87-169.662 146.167-254.042s179.132-169.84 257.875-248.583c5.791-5.789 13.79-9.369 22.625-9.369s16.834 3.58 22.625 9.369v0c78.743 78.743 177.578 164.204 257.875 248.583s146.167 166.657 146.167 254.042c0 129.228-105.439 234.667-234.667 234.667-74.164 0-138.734-39.818-192-107.458-53.266 67.64-117.836 107.458-192 107.458zM320 746.667c62.476 0 114.481-33.246 164.958-113.083 5.765-9.004 15.716-14.887 27.042-14.887s21.277 5.883 26.965 14.759l0.077 0.128c50.477 79.837 102.482 113.083 164.958 113.083 94.644 0 170.667-76.023 170.667-170.667 0-51.282-51.464-129.005-128.5-209.958-70.25-73.822-157.573-150.947-234.167-225.625-76.593 74.678-163.917 151.803-234.167 225.625-77.036 80.954-128.5 158.676-128.5 209.958 0 94.644 76.023 170.667 170.667 170.667z" />
<glyph unicode="&#xe90c;" glyph-name="like-fill" d="M85.333 874.667c-50.489 0-88.501-45.11-85.25-93.875 0-0.049 0-0.108 0-0.167s0-0.117 0-0.176v0.009c2.422-31.489 22.971-54.685 48.958-66.833-3.861-9.667-6.375-20.022-6.375-30.958 0-32.226 18.258-61.059 46.083-75.667 2.61-1.928 3.84-2.221 4.833-2.708 1.468-0.72 2.573-1.234 3.792-1.75 2.438-1.031 5.145-2.074 8.417-3.333 6.543-2.519 15.185-5.732 25.167-9.458 2.748-1.026 6.444-2.527 9.375-3.625-21.624-36.197-33.667-77.562-33.667-121.042 0-64 25.617-123.75 70.417-166.417 64-66.133 243.2-232.55 298.667-283.75 10.667-10.667 23.45-14.917 36.25-14.917s25.608 4.25 40.542 14.917c53.333 49.067 234.667 217.625 298.667 281.625 44.8 44.8 70.375 104.542 70.375 168.542 0 43.75-12.202 85.354-34.083 121.708 2.403 0.903 5.827 2.146 8.083 3 9.994 3.782 18.393 7.043 24.833 9.708 3.22 1.333 5.888 2.466 8.667 3.833 1.389 0.684 2.677 1.308 5.083 2.875 1.203 0.784 2.669 1.621 5.292 4.167 1.171 1.137 2.756 2.956 4.5 5.583 21.637 15.832 37.375 38.859 37.375 66.708 0 10.936-2.514 21.291-6.375 30.958 25.696 12.012 45.882 34.904 48.667 65.875 6.247 50.678-34.744 95.167-84.958 95.167h-113.083c-66.987 0-125.437-42.685-149.25-103.542-0.011-0.003-0.096-0.223-0.178-0.445l-0.072-0.221-25.083-68.667c-51.852-6.49-99.572-28.739-136.875-66.042-37.845 37.845-86.396 60.264-139.125 66.375l-24.958 68.333c-0.154 0.443-0.239 0.664-0.326 0.883l0.076-0.217c-23.813 60.856-82.263 103.542-149.25 103.542h-115.208zM85.333 810.667h115.208c39.68 0 75.080-25.598 89.667-62.875l17.208-47.167c-46.938-7.672-90.093-29.286-124.958-62.167-9.808 3.733-20.788 8.138-29.125 11.25-10.019 3.74-18.618 6.927-24.542 9.208-2.962 1.14-5.313 2.081-6.5 2.583 0 0-0.042 0-0.042 0-0.672 0.399-1.519 0.844-2.387 1.251l-0.196 0.083c-7.744 3.442-13 11.3-13 19.833 0 13.105 8.229 21.333 21.333 21.333 17.479 0.255 31.551 14.484 31.551 32s-14.072 31.745-31.527 32h-40.566c-12.895 0-22.647 7.973-23.458 17.25-0.896 15.090 7.9 25.417 21.333 25.417zM825.583 810.667h113.083c13.511 0 23.355-10.522 21.625-23.5-0.069-0.433-0.143-1.048-0.199-1.668l-0.009-0.124c-0.718-9.341-10.578-17.375-23.542-17.375h-40.542c-17.479-0.255-31.551-14.484-31.551-32s14.072-31.745 31.527-32h0.024c13.105 0 21.333-8.229 21.333-21.333 0-8.533-5.256-16.391-13-19.833-1.785-0.818-3.303-1.68-4.736-2.655l0.111 0.071c-0.788-0.359-1.767-0.805-3.75-1.625-5.16-2.135-13.261-5.273-23-8.958-7.629-2.887-18.707-6.976-27.958-10.417-35.227 32.917-78.815 54.395-126.167 61.708l17.125 46.917c14.608 37.229 49.976 62.792 89.625 62.792z" />
<glyph unicode="&#xe90d;" glyph-name="collapse_arrow" d="M563.499 691.499c-16.661 16.661-43.669 16.661-60.331 0l-405.333-405.333c-16.661-16.661-16.661-43.669 0-60.331s43.669-16.661 60.331 0l375.168 375.168 375.168-375.168c8.341-8.341 19.243-12.501 30.165-12.501s21.824 4.16 30.165 12.501c16.661 16.661 16.661 43.669 0 60.331l-405.333 405.333z" />
<glyph unicode="&#xe90e;" glyph-name="expand_arrow" d="M887.168 691.499l-375.168-375.168-375.168 375.168c-16.661 16.661-43.669 16.661-60.331 0s-16.661-43.669 0-60.331l405.333-405.333c8.341-8.341 19.243-12.501 30.165-12.501s21.824 4.16 30.165 12.501l405.333 405.333c16.661 16.661 16.661 43.669 0 60.331s-43.669 16.661-60.331 0z" />
<glyph unicode="&#xe90f;" glyph-name="less_than" d="M638.542 864.375c-11.504-0.517-21.748-5.513-29.107-13.273l-0.018-0.019-362.667-373.333c-7.473-7.677-12.081-18.176-12.081-29.75s4.608-22.072 12.090-29.76l-0.009 0.010 362.667-373.333c7.797-8.245 18.813-13.378 31.027-13.378 23.567 0 42.671 19.104 42.671 42.671 0 11.8-4.79 22.481-12.531 30.206l-0.001 0.001-333.75 343.583 333.75 343.583c7.715 7.721 12.486 18.384 12.486 30.161 0 23.567-19.104 42.671-42.671 42.671-0.653 0-1.303-0.015-1.949-0.044l0.092 0.003z" />
<glyph unicode="&#xe910;" glyph-name="more_than" d="M340.875 832.417c-23.544-0.030-42.618-19.123-42.618-42.671 0-11.987 4.942-22.819 12.9-30.57l311.176-311.176-311.167-311.167c-8.092-7.778-13.118-18.692-13.118-30.781 0-23.567 19.104-42.671 42.671-42.671 12.089 0 23.003 5.027 30.767 13.104l0.013 0.014 341.333 341.333c7.718 7.721 12.492 18.387 12.492 30.167s-4.774 22.445-12.492 30.167l-341.333 341.333c-7.761 7.971-18.596 12.917-30.586 12.917-0.014 0-0.027 0-0.041 0h0.002z" />
<glyph unicode="&#xe911;" glyph-name="double_left" d="M576 896c-10.917 0-21.836-4.169-30.167-12.5l-405.333-405.333c-16.661-16.661-16.661-43.672 0-60.333l405.333-405.333c8.341-8.341 19.244-12.5 30.167-12.5s21.825 4.159 30.167 12.5c16.661 16.661 16.661 43.672 0 60.333l-375.167 375.167 375.167 375.167c16.661 16.661 16.661 43.672 0 60.333-8.331 8.331-19.249 12.5-30.167 12.5zM853.333 896c-10.917 0-21.836-4.169-30.167-12.5l-405.333-405.333c-16.661-16.661-16.661-43.672 0-60.333l405.333-405.333c8.341-8.341 19.244-12.5 30.167-12.5s21.825 4.159 30.167 12.5c16.661 16.661 16.661 43.672 0 60.333l-375.167 375.167 375.167 375.167c16.661 16.661 16.661 43.672 0 60.333-8.331 8.331-19.249 12.5-30.167 12.5z" />
<glyph unicode="&#xe912;" glyph-name="double_right" d="M170.667 896c-10.917 0-21.836-4.169-30.167-12.5-16.661-16.661-16.661-43.672 0-60.333l375.167-375.167-375.167-375.167c-16.661-16.661-16.661-43.672 0-60.333 8.341-8.341 19.244-12.5 30.167-12.5s21.825 4.159 30.167 12.5l405.333 405.333c16.661 16.661 16.661 43.672 0 60.333l-405.333 405.333c-8.331 8.331-19.249 12.5-30.167 12.5zM448 896c-10.917 0-21.836-4.169-30.167-12.5-16.661-16.661-16.661-43.672 0-60.333l375.167-375.167-375.167-375.167c-16.661-16.661-16.661-43.672 0-60.333 8.341-8.341 19.244-12.5 30.167-12.5s21.825 4.159 30.167 12.5l405.333 405.333c16.661 16.661 16.661 43.672 0 60.333l-405.333 405.333c-8.331 8.331-19.249 12.5-30.167 12.5z" />
<glyph unicode="&#xe913;" glyph-name="grid" d="M628.833 832.458c-1.681-0.042-3.29-0.207-4.86-0.487l0.193 0.029h-378.833c-64.422 0-117.333-52.911-117.333-117.333v-378.75c-0.269-1.559-0.423-3.356-0.423-5.187s0.154-3.628 0.45-5.376l-0.026 0.188v-144.208c0-64.422 52.911-117.333 117.333-117.333h378.75c1.559-0.269 3.356-0.423 5.187-0.423s3.628 0.154 5.376 0.45l-0.188-0.026h144.208c64.422 0 117.333 52.911 117.333 117.333v144.083c0.269 1.559 0.423 3.356 0.423 5.187s-0.154 3.628-0.45 5.376l0.026-0.188v378.875c0 64.422-52.911 117.333-117.333 117.333h-144.083c-1.626 0.293-3.497 0.46-5.408 0.46-0.12 0-0.241-0.001-0.361-0.002h0.018zM245.333 768h117.333v-170.667h-170.667v117.333c0 29.829 23.505 53.333 53.333 53.333zM426.667 768h170.667v-170.667h-170.667v170.667zM661.333 768h117.333c29.829 0 53.333-23.505 53.333-53.333v-117.333h-170.667v170.667zM192 533.333h170.667v-170.667h-170.667v170.667zM426.667 533.333h170.667v-170.667h-170.667v170.667zM661.333 533.333h170.667v-170.667h-170.667v170.667zM192 298.667h170.667v-170.667h-117.333c-29.829 0-53.333 23.505-53.333 53.333v117.333zM426.667 298.667h170.667v-170.667h-170.667v170.667zM661.333 298.667h170.667v-117.333c0-29.829-23.505-53.333-53.333-53.333h-117.333v170.667z" />
<glyph unicode="&#xe914;" glyph-name="list" d="M160 853.333c-29.090 0-53.333-24.243-53.333-53.333v-128c0-29.090 24.243-53.333 53.333-53.333h128c29.090 0 53.333 24.243 53.333 53.333v128c0 29.090-24.243 53.333-53.333 53.333h-128zM170.667 789.333h106.667v-106.667h-106.667v106.667zM437.333 768c-0.135 0.002-0.293 0.003-0.453 0.003-17.675 0-32.003-14.328-32.003-32.003s14.328-32.003 32.003-32.003c0.159 0 0.318 0.001 0.477 0.003h447.976c0.135-0.002 0.293-0.003 0.453-0.003 17.675 0 32.003 14.328 32.003 32.003s-14.328 32.003-32.003 32.003c-0.159 0-0.318-0.001-0.477-0.003h-447.976zM160 565.333c-29.090 0-53.333-24.243-53.333-53.333v-128c0-29.090 24.243-53.333 53.333-53.333h128c29.090 0 53.333 24.243 53.333 53.333v128c0 29.090-24.243 53.333-53.333 53.333h-128zM170.667 501.333h106.667v-106.667h-106.667v106.667zM437.333 480c-0.135 0.002-0.293 0.003-0.453 0.003-17.675 0-32.003-14.328-32.003-32.003s14.328-32.003 32.003-32.003c0.159 0 0.318 0.001 0.477 0.003h447.976c0.135-0.002 0.293-0.003 0.453-0.003 17.675 0 32.003 14.328 32.003 32.003s-14.328 32.003-32.003 32.003c-0.159 0-0.318-0.001-0.477-0.003h-447.976zM160 277.333c-29.090 0-53.333-24.243-53.333-53.333v-128c0-29.090 24.243-53.333 53.333-53.333h128c29.090 0 53.333 24.243 53.333 53.333v128c0 29.090-24.243 53.333-53.333 53.333h-128zM170.667 213.333h106.667v-106.667h-106.667v106.667zM437.333 192c-0.135 0.002-0.293 0.003-0.453 0.003-17.675 0-32.003-14.328-32.003-32.003s14.328-32.003 32.003-32.003c0.159 0 0.318 0.001 0.477 0.003h447.976c0.135-0.002 0.293-0.003 0.453-0.003 17.675 0 32.003 14.328 32.003 32.003s-14.328 32.003-32.003 32.003c-0.159 0-0.318-0.001-0.477-0.003h-447.976z" />
<glyph unicode="&#xe915;" glyph-name="Facebook" d="M512 874.667c-235.264 0-426.667-191.403-426.667-426.667 0-213.461 157.739-390.293 362.667-421.333v314.667h-85.333c-11.776 0-21.333 9.536-21.333 21.333v64c0 11.797 9.557 21.333 21.333 21.333h85.333v77.483c0 101.355 51.776 157.184 145.792 157.184 38.101 0 68.16-2.645 69.419-2.752 11.008-0.981 19.456-10.197 19.456-21.248v-72c0-11.797-9.557-21.333-21.333-21.333h-42.667c-23.531 0-42.667-19.136-42.667-42.667v-74.667h85.333c6.123 0 11.947-2.624 16-7.211 4.053-4.608 5.931-10.709 5.184-16.768l-8-64c-1.344-10.667-10.432-18.688-21.184-18.688h-77.333v-314.667c204.928 31.040 362.667 207.872 362.667 421.333 0 235.264-191.403 426.667-426.667 426.667z" />
<glyph unicode="&#xe916;" glyph-name="Instagram" d="M352 853.333c-135.275 0-245.333-110.059-245.333-245.333v-320c0-135.275 110.059-245.333 245.333-245.333h320c135.275 0 245.333 110.059 245.333 245.333v320c0 135.275-110.059 245.333-245.333 245.333h-320zM725.333 704c23.573 0 42.667-19.093 42.667-42.667 0-23.552-19.093-42.667-42.667-42.667s-42.667 19.115-42.667 42.667c0 23.573 19.093 42.667 42.667 42.667zM512 661.333c117.632 0 213.333-95.701 213.333-213.333s-95.701-213.333-213.333-213.333c-117.632 0-213.333 95.701-213.333 213.333s95.701 213.333 213.333 213.333zM512 597.333c-82.475 0-149.333-66.859-149.333-149.333s66.859-149.333 149.333-149.333v0c82.475 0 149.333 66.859 149.333 149.333s-66.859 149.333-149.333 149.333v0z" />
<glyph unicode="&#xe917;" glyph-name="twitter" d="M954.005 740.16c-6.293 6.507-15.979 8.363-24.235 4.565l-3.499-1.6c-2.965-1.365-5.931-2.731-8.917-4.075 8.683 13.845 15.573 28.651 20.331 43.968 2.645 8.448-0.235 17.685-7.232 23.147s-16.64 6.037-24.213 1.408c-24.341-14.784-47.723-25.429-71.893-32.853-36.48 35.392-86.165 57.28-141.013 57.28-111.936 0-202.667-90.731-202.667-202.667 0-0.107 0-4.331 0-10.667l-21.312 1.707c-207.424 24.533-266.475 164.053-268.928 170.069-3.968 10.027-12.715 17.344-23.275 19.541-10.539 2.24-21.483-1.067-29.12-8.683-4.224-4.245-41.365-43.541-41.365-118.635 0-53.504 23.851-96.896 54.72-130.645-14.379 8.768-22.763 15.872-22.976 16.064-9.835 8.576-23.915 10.368-35.605 4.437-11.648-5.952-18.517-18.389-17.344-31.424 0.405-4.501 9.493-89.877 108.117-154.347l-17.984-3.264c-10.901-1.984-20.011-9.472-24.064-19.797-4.032-10.347-2.453-22.016 4.203-30.891 2.24-3.008 43.904-57.173 134.379-88.32-48.32-16.107-114.709-31.147-194.112-31.147-12.544 0-23.957-7.339-29.141-18.773-5.205-11.435-3.221-24.853 5.056-34.283 3.435-3.947 86.699-96.277 301.419-96.277 356.544 0 522.667 330.987 522.667 554.667v10.667c0 3.157-0.341 6.251-0.469 9.365 44.629 43.136 61.419 75.499 62.229 77.099 4.032 8.107 2.539 17.877-3.755 24.363z" />
<glyph unicode="&#xe918;" glyph-name="password" d="M309.333 853.333c-111.424 0-202.667-91.242-202.667-202.667s91.242-202.667 202.667-202.667c45.818 0 88.073 15.627 122.125 41.542l201.542-201.542-87.167-87.167c-8.092-7.778-13.118-18.692-13.118-30.781 0-23.567 19.104-42.671 42.671-42.671 12.089 0 23.003 5.027 30.767 13.104l0.013 0.014 87.167 87.167 57-57-55.167-55.167c-8.092-7.778-13.118-18.692-13.118-30.781 0-23.567 19.104-42.671 42.671-42.671 12.089 0 23.003 5.027 30.767 13.104l0.013 0.014 55.167 55.167 33.833-33.833c7.778-8.092 18.692-13.118 30.781-13.118 23.567 0 42.671 19.104 42.671 42.671 0 12.089-5.027 23.003-13.104 30.767l-0.014 0.013-59.083 59.083c-2.741 3.786-5.964 7.009-9.626 9.665l-0.124 0.085-107.583 107.583c-2.741 3.786-5.964 7.009-9.626 9.665l-0.124 0.085-231.25 231.292c15.652 28.71 24.583 61.555 24.583 96.375 0 111.424-91.242 202.667-202.667 202.667zM309.333 768c65.307 0 117.333-52.027 117.333-117.333 0-27.023-9.012-51.686-24.083-71.417-2.114-2.068-4.008-4.346-5.653-6.804l-0.097-0.155c-21.407-23.922-52.5-38.958-87.5-38.958-65.307 0-117.333 52.027-117.333 117.333s52.026 117.333 117.333 117.333z" />
<glyph unicode="&#xe919;" glyph-name="mobile-fill" d="M672 725.333h-320c-11.221 0-21.995-1.941-32-5.483v144.149c0 17.685-14.315 32-32 32s-32-14.315-32-32v-768c0-52.928 43.072-96 96-96h320c52.928 0 96 43.072 96 96v533.333c0 52.928-43.072 96-96 96zM362.667 586.667c0 17.685 14.315 32 32 32h234.667c17.685 0 32-14.315 32-32v-170.667c0-17.685-14.315-32-32-32h-234.667c-17.685 0-32 14.315-32 32v170.667zM394.667 106.667c-17.664 0-32 14.336-32 32s14.336 32 32 32 32-14.336 32-32-14.336-32-32-32zM394.667 234.667c-17.664 0-32 14.336-32 32s14.336 32 32 32 32-14.336 32-32-14.336-32-32-32zM512 106.667c-17.664 0-32 14.336-32 32s14.336 32 32 32 32-14.336 32-32-14.336-32-32-32zM512 234.667c-17.664 0-32 14.336-32 32s14.336 32 32 32 32-14.336 32-32-14.336-32-32-32zM629.333 106.667c-17.664 0-32 14.336-32 32s14.336 32 32 32 32-14.336 32-32-14.336-32-32-32zM629.333 234.667c-17.664 0-32 14.336-32 32s14.336 32 32 32 32-14.336 32-32-14.336-32-32-32z" />
<glyph unicode="&#xe91a;" glyph-name="numbers" d="M805.292 778.625c-39.47 0-70.307-14.257-91.25-28.75s-32.025-28.966-33.542-31c-14.022-18.746-10.15-45.607 8.542-59.667 18.743-14.1 45.688-10.258 59.75 8.5 0.016 0.022 0.057 0.090 0.098 0.159l0.027 0.049c0.213 0.299 19.925 25.375 56.375 25.375 26.583 0 48-21.417 48-48s-21.417-48-48-48h-5.333c-23.441 0-42.667-19.226-42.667-42.667s19.226-42.667 42.667-42.667h10.667c29.984 0 53.333-21.947 53.333-48s-23.349-48-53.333-48c-39.872 0-62.345 26.344-62.792 26.875-14.626 18.084-41.451 21.048-59.708 6.583-0.014-0.014-0.028-0.028-0.041-0.041v0c-18.349-14.589-21.44-41.561-6.875-59.917 0.014-0.014 0.028-0.028 0.041-0.041v0c2.473-3.091 47.812-58.792 129.375-58.792 76.136 0 138.667 59.67 138.667 133.333 0 37.874-17.921 70.961-44.292 95.208 20.194 23.375 33.625 52.92 33.625 86.125 0 73.414-59.919 133.333-133.333 133.333zM221.583 778.583c-3.289-0.183-6.573-0.76-9.792-1.708-0.006 0-0.014 0-0.021 0s-0.015 0-0.022 0h0.001l-106.667-32c-22.465-6.734-35.36-30.683-28.625-53.125 6.722-22.426 30.626-35.335 53.125-28.625l51.75 15.542v-305.333c0-23.441 19.226-42.667 42.667-42.667s42.667 19.226 42.667 42.667v362.667c0 13.473-6.381 26.189-17.167 34.25-0.006 0-0.014 0-0.021 0s-0.015 0-0.022 0h0.001c-8.119 6.010-18.008 8.881-27.875 8.333zM469.333 565.333c-76.375 0-138.667-62.292-138.667-138.667v-10.667c0-23.441 19.226-42.667 42.667-42.667s42.667 19.226 42.667 42.667v10.667c0 29.498 23.835 53.333 53.333 53.333s53.333-23.835 53.333-53.333c0-33.702-19.357-63.002-47-73.375l-9.333-3.458c-25.631-9.376-59.711-21.685-87.458-49.708-27.759-28.035-48.208-71.703-48.208-140.125 0-23.441 19.226-42.667 42.667-42.667h192c23.441 0 42.667 19.226 42.667 42.667s-19.226 42.667-42.667 42.667h-143.833c4.793 19.286 12.015 32.839 22.583 41.75 12.924 10.897 30.708 17.633 51.625 25.292l9.917 3.667c0.006 0 0.014 0 0.021 0s0.015 0 0.022 0h-0.001c61.487 23.055 102.333 84.751 102.333 153.292 0 76.375-62.292 138.667-138.667 138.667z" />
<glyph unicode="&#xe91b;" glyph-name="light" d="M511.5 875.125c-17.459-0.281-31.503-14.5-31.503-31.999 0-0.161 0.001-0.323 0.004-0.483v0.024-64c-0.002-0.135-0.003-0.293-0.003-0.453 0-17.675 14.328-32.003 32.003-32.003s32.003 14.328 32.003 32.003c0 0.159-0.001 0.318-0.003 0.477v-0.024 64c0.002 0.136 0.003 0.298 0.003 0.459 0 17.675-14.328 32.003-32.003 32.003-0.176 0-0.351-0.001-0.526-0.004h0.026zM232.583 759.375c-17.672-0.004-31.995-14.331-31.995-32.003 0-9 3.715-17.133 9.696-22.948l45.257-45.257c5.796-5.796 13.802-9.38 22.646-9.38 17.687 0 32.026 14.339 32.026 32.026 0 8.844-3.585 16.85-9.38 22.646l-45.25 45.25c-5.819 5.966-13.937 9.667-22.919 9.667-0.028 0-0.057 0-0.085 0h0.004zM790.417 759.375c-8.646-0.26-16.392-3.91-21.993-9.66l-45.257-45.257c-5.796-5.796-9.38-13.802-9.38-22.646 0-17.687 14.339-32.026 32.026-32.026 8.844 0 16.85 3.585 22.646 9.38l45.25 45.25c5.998 5.823 9.72 13.963 9.72 22.971 0 17.675-14.328 32.003-32.003 32.003-0.355 0-0.708-0.006-1.060-0.017l0.051 0.001zM512 682.667c-129.603 0-234.667-105.064-234.667-234.667s105.064-234.667 234.667-234.667v0c129.603 0 234.667 105.064 234.667 234.667s-105.064 234.667-234.667 234.667v0zM117.333 480c-0.135 0.002-0.293 0.003-0.453 0.003-17.675 0-32.003-14.328-32.003-32.003s14.328-32.003 32.003-32.003c0.159 0 0.318 0.001 0.477 0.003h63.976c0.135-0.002 0.293-0.003 0.453-0.003 17.675 0 32.003 14.328 32.003 32.003s-14.328 32.003-32.003 32.003c-0.159 0-0.318-0.001-0.477-0.003h-63.976zM842.667 480c-0.135 0.002-0.293 0.003-0.453 0.003-17.675 0-32.003-14.328-32.003-32.003s14.328-32.003 32.003-32.003c0.159 0 0.318 0.001 0.477 0.003h63.976c0.135-0.002 0.293-0.003 0.453-0.003 17.675 0 32.003 14.328 32.003 32.003s-14.328 32.003-32.003 32.003c-0.159 0-0.318-0.001-0.477-0.003h-63.976zM277.542 246.5c-8.646-0.26-16.392-3.91-21.993-9.66l-45.257-45.257c-5.798-5.796-9.385-13.805-9.385-22.651 0-17.687 14.339-32.026 32.026-32.026 8.846 0 16.855 3.587 22.651 9.385l45.25 45.25c5.998 5.823 9.72 13.963 9.72 22.971 0 17.675-14.328 32.003-32.003 32.003-0.355 0-0.708-0.006-1.060-0.017l0.051 0.001zM745.458 246.5c-17.672-0.004-31.995-14.331-31.995-32.003 0-9 3.715-17.133 9.696-22.948l45.257-45.257c5.796-5.796 13.802-9.38 22.646-9.38 17.687 0 32.026 14.339 32.026 32.026 0 8.844-3.585 16.85-9.38 22.646v0l-45.25 45.25c-5.819 5.966-13.937 9.667-22.919 9.667-0.028 0-0.057 0-0.085 0h0.004zM511.5 149.792c-17.459-0.281-31.503-14.5-31.503-31.999 0-0.161 0.001-0.323 0.004-0.483v0.024-64c-0.002-0.135-0.003-0.293-0.003-0.453 0-17.675 14.328-32.003 32.003-32.003s32.003 14.328 32.003 32.003c0 0.159-0.001 0.318-0.003 0.477v-0.024 64c0.002 0.137 0.003 0.298 0.003 0.459 0 17.675-14.328 32.003-32.003 32.003-0.176 0-0.351-0.001-0.527-0.004h0.026z" />
<glyph unicode="&#xe91c;" glyph-name="dark" d="M892.288 106.581c-4.011 12.373-15.488 20.757-28.501 20.864-66.731 0.384-142.208 34.112-203.563 74.923-40.128-14.613-101.035-29.995-135.125-31.403l-5.867-0.235c-11.989-0.491-23.509-0.981-34.752-0.981-44.629 0-85.269 7.445-137.941 50.496l-4.693 4.715-25.749 32.021c-11.093 13.781-8.896 33.92 4.885 44.992 13.76 11.093 33.941 8.896 44.992-4.885l23.595-29.355c45.504-36.437 71.509-35.371 127.019-33.088l5.888 0.256c17.728 0.725 47.723 7.147 75.904 14.997-20.395 18.261-36.693 36.032-46.805 51.179l36.544 24.341c9.152 6.123 14.208 16.789 13.205 27.84-1.003 10.987-7.936 20.544-18.091 24.96-0.875 0.384-9.259 4.181-20.459 12.779 25.28 19.008 42.133 51.904 44.48 90.731 12.8 4.224 22.080 16.107 22.080 30.272 0 17.664-14.336 32-32 32h-92.565c6.72 154.24 110.059 273.045 161.387 307.499 11.072 7.467 15.893 21.035 11.989 33.877-3.925 12.736-15.509 21.291-28.949 21.291-193.024-0.725-351.595-84.053-435.072-228.629-62.485-108.16-78.699-239.040-44.523-359.061 32.917-115.776 108.288-210.24 212.203-266.005 77.568-41.643 161.301-63.637 242.112-63.637 0.043 0 0.085 0 0.128 0 93.525 0 182.507 28.907 257.365 83.627 10.517 7.701 14.891 21.205 10.88 33.621zM543.275 480c-2.581-19.328-11.947-34.048-22.187-39.829-6.016 10.965-11.413 23.595-15.467 38.187l-0.043 1.643h37.696zM445.227 480v-0.128l24.192-0.085-13.867-42.048c0 0-0.256-0.064-0.491-0.149-11.733-19.499-29.525-32.256-49.728-32.256-32.597 0-59.221 32.64-63.189 74.667h103.083z" />
<glyph unicode="&#xe91d;" glyph-name="ascending_sorting" d="M703.375 832.583c-23.296-0.352-42.046-19.32-42.046-42.666 0-0.205 0.001-0.41 0.004-0.615v0.031-409l-76.5 76.5c-7.778 8.092-18.692 13.118-30.781 13.118-23.567 0-42.671-19.104-42.671-42.671 0-12.089 5.027-23.003 13.104-30.767l0.014-0.013 149.333-149.333c7.721-7.718 18.387-12.492 30.167-12.492s22.445 4.774 30.167 12.492l149.333 149.333c8.092 7.778 13.118 18.692 13.118 30.781 0 23.567-19.104 42.671-42.671 42.671-12.089 0-23.003-5.027-30.767-13.104l-0.013-0.014-76.5-76.5v409c0.003 0.174 0.004 0.378 0.004 0.584 0 23.567-19.104 42.671-42.671 42.671-0.22 0-0.439-0.002-0.658-0.005h0.033zM170.667 832c-0.179 0.003-0.391 0.004-0.603 0.004-23.567 0-42.671-19.104-42.671-42.671s19.104-42.671 42.671-42.671c0.212 0 0.424 0.002 0.635 0.005h63.968c0.179-0.003 0.391-0.004 0.603-0.004 23.567 0 42.671 19.104 42.671 42.671s-19.104 42.671-42.671 42.671c-0.212 0-0.424-0.002-0.635-0.005h-63.968zM170.667 661.333c-0.179 0.003-0.391 0.004-0.603 0.004-23.567 0-42.671-19.104-42.671-42.671s19.104-42.671 42.671-42.671c0.212 0 0.424 0.002 0.635 0.005h149.301c0.179-0.003 0.391-0.004 0.603-0.004 23.567 0 42.671 19.104 42.671 42.671s-19.104 42.671-42.671 42.671c-0.212 0-0.424-0.002-0.635-0.005h-149.301zM170.667 490.667c-0.179 0.003-0.391 0.004-0.603 0.004-23.567 0-42.671-19.104-42.671-42.671s19.104-42.671 42.671-42.671c0.212 0 0.424 0.002 0.635 0.005h234.635c0.179-0.003 0.391-0.004 0.603-0.004 23.567 0 42.671 19.104 42.671 42.671s-19.104 42.671-42.671 42.671c-0.212 0-0.424-0.002-0.635-0.005h-234.635zM170.667 320c-0.179 0.003-0.391 0.004-0.603 0.004-23.567 0-42.671-19.104-42.671-42.671s19.104-42.671 42.671-42.671c0.212 0 0.424 0.002 0.635 0.005h319.968c0.179-0.003 0.391-0.004 0.603-0.004 23.567 0 42.671 19.104 42.671 42.671s-19.104 42.671-42.671 42.671c-0.212 0-0.424-0.002-0.635-0.005h-319.968zM170.667 149.333c-0.179 0.003-0.391 0.004-0.603 0.004-23.567 0-42.671-19.104-42.671-42.671s19.104-42.671 42.671-42.671c0.212 0 0.424 0.002 0.635 0.005h405.301c0.179-0.003 0.391-0.004 0.603-0.004 23.567 0 42.671 19.104 42.671 42.671s-19.104 42.671-42.671 42.671c-0.212 0-0.424-0.002-0.635-0.005h-405.301z" />
<glyph unicode="&#xe91e;" glyph-name="descending_sorting" d="M170.667 832c-0.179 0.003-0.391 0.004-0.603 0.004-23.567 0-42.671-19.104-42.671-42.671s19.104-42.671 42.671-42.671c0.212 0 0.424 0.002 0.635 0.005h405.301c0.179-0.003 0.391-0.004 0.603-0.004 23.567 0 42.671 19.104 42.671 42.671s-19.104 42.671-42.671 42.671c-0.212 0-0.424-0.002-0.635-0.005h-405.301zM703.375 661.917c-23.296-0.352-42.046-19.32-42.046-42.666 0-0.205 0.001-0.41 0.004-0.615v0.031-409l-76.5 76.5c-7.778 8.092-18.692 13.118-30.781 13.118-23.567 0-42.671-19.104-42.671-42.671 0-12.089 5.027-23.003 13.104-30.767l0.014-0.013 149.333-149.333c7.721-7.718 18.387-12.492 30.167-12.492s22.445 4.774 30.167 12.492l149.333 149.333c8.092 7.778 13.118 18.692 13.118 30.781 0 23.567-19.104 42.671-42.671 42.671-12.089 0-23.003-5.027-30.767-13.104l-0.013-0.014-76.5-76.5v409c0.003 0.174 0.004 0.378 0.004 0.584 0 23.567-19.104 42.671-42.671 42.671-0.22 0-0.439-0.002-0.658-0.005h0.033zM170.667 661.333c-0.179 0.003-0.391 0.004-0.603 0.004-23.567 0-42.671-19.104-42.671-42.671s19.104-42.671 42.671-42.671c0.212 0 0.424 0.002 0.635 0.005h309.301c0.179-0.003 0.391-0.004 0.603-0.004 23.567 0 42.671 19.104 42.671 42.671s-19.104 42.671-42.671 42.671c-0.212 0-0.424-0.002-0.635-0.005h-309.301zM170.667 490.667c-0.179 0.003-0.391 0.004-0.603 0.004-23.567 0-42.671-19.104-42.671-42.671s19.104-42.671 42.671-42.671c0.212 0 0.424 0.002 0.635 0.005h234.635c0.179-0.003 0.391-0.004 0.603-0.004 23.567 0 42.671 19.104 42.671 42.671s-19.104 42.671-42.671 42.671c-0.212 0-0.424-0.002-0.635-0.005h-234.635zM170.667 320c-0.179 0.003-0.391 0.004-0.603 0.004-23.567 0-42.671-19.104-42.671-42.671s19.104-42.671 42.671-42.671c0.212 0 0.424 0.002 0.635 0.005h149.301c0.179-0.003 0.391-0.004 0.603-0.004 23.567 0 42.671 19.104 42.671 42.671s-19.104 42.671-42.671 42.671c-0.212 0-0.424-0.002-0.635-0.005h-149.301zM170.667 149.333c-0.179 0.003-0.391 0.004-0.603 0.004-23.567 0-42.671-19.104-42.671-42.671s19.104-42.671 42.671-42.671c0.212 0 0.424 0.002 0.635 0.005h63.968c0.179-0.003 0.391-0.004 0.603-0.004 23.567 0 42.671 19.104 42.671 42.671s-19.104 42.671-42.671 42.671c-0.212 0-0.424-0.002-0.635-0.005h-63.968z" />
<glyph unicode="&#xe91f;" glyph-name="login" d="M266.667 853.333c-64.422 0-117.333-52.911-117.333-117.333v-576c0-64.422 52.911-117.333 117.333-117.333h277.333c64.422 0 117.333 52.911 117.333 117.333v202.667h-64v-202.667c0-29.829-23.505-53.333-53.333-53.333h-277.333c-29.829 0-53.333 23.505-53.333 53.333v576c0 29.829 23.505 53.333 53.333 53.333h277.333c29.829 0 53.333-23.505 53.333-53.333v-202.667h64v202.667c0 64.422-52.911 117.333-117.333 117.333h-277.333zM458.042 629.625c-8.646-0.26-16.392-3.91-21.993-9.66l-149.34-149.34c-5.789-5.791-9.369-13.79-9.369-22.625s3.58-16.834 9.369-22.625l149.333-149.333c5.833-6.068 14.019-9.838 23.085-9.838 17.675 0 32.003 14.328 32.003 32.003 0 9.066-3.77 17.252-9.828 23.075l-0.011 0.010-94.708 94.708h498.75c0.135-0.002 0.293-0.003 0.453-0.003 17.675 0 32.003 14.328 32.003 32.003s-14.328 32.003-32.003 32.003c-0.159 0-0.318-0.001-0.477-0.003h-498.726l94.708 94.708c5.971 5.82 9.675 13.941 9.675 22.927 0 17.675-14.328 32.003-32.003 32.003-0.324 0-0.647-0.005-0.969-0.014l0.047 0.001z" />
<glyph unicode="&#xe920;" glyph-name="logout" d="M266.667 853.333c-64.422 0-117.333-52.911-117.333-117.333v-576c0-64.422 52.911-117.333 117.333-117.333h256c64.422 0 117.333 52.911 117.333 117.333v202.667h-64v-202.667c0-29.829-23.505-53.333-53.333-53.333h-256c-29.829 0-53.333 23.505-53.333 53.333v576c0 29.829 23.505 53.333 53.333 53.333h256c29.829 0 53.333-23.505 53.333-53.333v-202.667h64v202.667c0 64.422-52.911 117.333-117.333 117.333h-256zM735.667 629.667c-17.672-0.004-31.995-14.331-31.995-32.003 0-9 3.715-17.133 9.696-22.948l94.715-94.715h-477.417c-0.135 0.002-0.293 0.003-0.453 0.003-17.675 0-32.003-14.328-32.003-32.003s14.328-32.003 32.003-32.003c0.159 0 0.318 0.001 0.477 0.003h477.393l-94.708-94.708c-6.068-5.833-9.838-14.019-9.838-23.085 0-17.675 14.328-32.003 32.003-32.003 9.066 0 17.252 3.77 23.075 9.828l0.010 0.011 149.333 149.333c5.789 5.791 9.369 13.79 9.369 22.625s-3.58 16.834-9.369 22.625l-149.333 149.333c-5.822 5.991-13.956 9.708-22.958 9.708v0z" />
<glyph unicode="&#xe921;" glyph-name="trash" d="M512 874.667c-74.844 0-137.165-55.924-147.625-128h-225.708c-0.135 0.002-0.293 0.003-0.453 0.003-17.675 0-32.003-14.328-32.003-32.003s14.328-32.003 32.003-32.003c0.159 0 0.318 0.001 0.477 0.003h45.559l53.75-555.292c5.845-60.437 56.097-106.042 116.833-106.042h314.333c60.736 0 110.967 45.604 116.833 106.042l53.75 555.292h45.583c0.135-0.002 0.293-0.003 0.453-0.003 17.675 0 32.003 14.328 32.003 32.003s-14.328 32.003-32.003 32.003c-0.159 0-0.318-0.001-0.477-0.003h-225.684c-10.46 72.076-72.781 128-147.625 128zM512 810.667c40.089 0 72.976-27.054 82.375-64h-164.75c9.399 36.946 42.286 64 82.375 64zM416 576c17.664 0 32-14.315 32-32v-320c0-17.685-14.336-32-32-32s-32 14.315-32 32v320c0 17.685 14.336 32 32 32zM608 576c17.664 0 32-14.315 32-32v-320c0-17.685-14.336-32-32-32s-32 14.315-32 32v320c0 17.685 14.336 32 32 32z" />
</font>
</defs>
</svg>
