<svg width="647" height="648" viewBox="0 0 647 648" fill="none" xmlns="http://www.w3.org/2000/svg">
<g filter="url(#filter0_f_14_515)">
<circle cx="323.5" cy="324.03" r="73.5" fill="#09736A"/>
</g>
<path opacity="0.4" d="M371.373 328.137C370.359 328.134 369.381 327.757 368.628 327.077C367.875 326.397 367.4 325.463 367.293 324.454C366.624 318.299 364.638 312.36 361.47 307.041C358.302 301.722 354.026 297.147 348.933 293.627C348.039 293.003 347.429 292.05 347.238 290.977C347.047 289.903 347.29 288.798 347.913 287.904C348.537 287.009 349.49 286.4 350.564 286.208C351.637 286.017 352.742 286.26 353.637 286.884C359.691 291.089 364.775 296.542 368.547 302.876C372.318 309.209 374.691 316.277 375.504 323.604C375.615 324.693 375.29 325.782 374.6 326.631C373.909 327.481 372.91 328.023 371.821 328.137H371.373Z" fill="#15AB89"/>
<path opacity="0.4" d="M277.193 328.42H276.797C275.708 328.306 274.709 327.764 274.018 326.914C273.328 326.065 273.002 324.976 273.113 323.887C273.865 316.576 276.174 309.512 279.885 303.168C283.595 296.825 288.621 291.349 294.624 287.11C295.515 286.482 296.617 286.23 297.692 286.408C298.767 286.586 299.729 287.18 300.37 288.062C300.993 288.951 301.241 290.05 301.06 291.121C300.88 292.192 300.286 293.149 299.407 293.785C294.364 297.345 290.142 301.943 287.024 307.27C283.906 312.596 281.965 318.529 281.33 324.669C281.226 325.695 280.746 326.646 279.982 327.339C279.218 328.032 278.225 328.417 277.193 328.42V328.42Z" fill="#15AB89"/>
<path opacity="0.4" d="M346.61 375.567C339.663 378.908 332.049 380.632 324.34 380.61C316.291 380.647 308.349 378.763 301.175 375.113C300.688 374.877 300.254 374.545 299.898 374.138C299.542 373.731 299.271 373.257 299.101 372.744C298.931 372.231 298.865 371.689 298.908 371.149C298.951 370.61 299.101 370.085 299.35 369.605C299.834 368.631 300.683 367.888 301.713 367.537C302.743 367.187 303.869 367.258 304.847 367.735C308.39 369.521 312.167 370.799 316.067 371.532C321.263 372.551 326.603 372.609 331.82 371.702C335.687 371.03 339.444 369.828 342.983 368.132C343.469 367.89 343.999 367.748 344.541 367.714C345.083 367.68 345.626 367.755 346.139 367.935C346.651 368.114 347.122 368.395 347.524 368.76C347.927 369.124 348.251 369.566 348.48 370.059C348.731 370.541 348.882 371.069 348.924 371.611C348.966 372.153 348.897 372.698 348.722 373.212C348.548 373.727 348.27 374.201 347.907 374.606C347.544 375.01 347.103 375.337 346.61 375.567V375.567Z" fill="#15AB89"/>
<path d="M324.283 267.39C321.123 267.39 318.033 268.327 315.405 270.083C312.778 271.839 310.729 274.335 309.52 277.255C308.31 280.175 307.994 283.388 308.61 286.488C309.227 289.587 310.749 292.435 312.984 294.67C315.219 296.905 318.066 298.426 321.166 299.043C324.266 299.66 327.479 299.343 330.399 298.134C333.319 296.924 335.814 294.876 337.57 292.248C339.326 289.62 340.263 286.531 340.263 283.37C340.259 279.133 338.574 275.071 335.578 272.076C332.582 269.08 328.52 267.395 324.283 267.39V267.39Z" fill="#15AB89"/>
<path d="M284.617 334.597C281.456 334.597 278.367 335.534 275.739 337.29C273.111 339.046 271.063 341.541 269.853 344.461C268.644 347.381 268.327 350.594 268.944 353.694C269.56 356.794 271.082 359.641 273.317 361.876C275.552 364.111 278.399 365.633 281.499 366.25C284.599 366.866 287.812 366.55 290.732 365.34C293.652 364.131 296.148 362.083 297.904 359.455C299.66 356.827 300.597 353.737 300.597 350.577C300.592 346.34 298.907 342.278 295.911 339.282C292.915 336.286 288.854 334.601 284.617 334.597V334.597Z" fill="#15AB89"/>
<path d="M363.383 334.597C360.223 334.597 357.133 335.534 354.505 337.29C351.877 339.046 349.829 341.541 348.62 344.461C347.41 347.381 347.094 350.594 347.71 353.694C348.327 356.794 349.849 359.641 352.084 361.876C354.319 364.111 357.166 365.633 360.266 366.25C363.366 366.866 366.579 366.55 369.499 365.34C372.419 364.131 374.914 362.083 376.67 359.455C378.426 356.827 379.363 353.737 379.363 350.577C379.359 346.34 377.674 342.278 374.678 339.282C371.682 336.286 367.62 334.601 363.383 334.597V334.597Z" fill="#15AB89"/>
<defs>
<filter id="filter0_f_14_515" x="0" y="0.529785" width="647" height="647" filterUnits="userSpaceOnUse" color-interpolation-filters="sRGB">
<feFlood flood-opacity="0" result="BackgroundImageFix"/>
<feBlend mode="normal" in="SourceGraphic" in2="BackgroundImageFix" result="shape"/>
<feGaussianBlur stdDeviation="125" result="effect1_foregroundBlur_14_515"/>
</filter>
</defs>
</svg>
