<svg width="647" height="648" viewBox="0 0 647 648" fill="none" xmlns="http://www.w3.org/2000/svg">
<g filter="url(#filter0_f_14_529)">
<circle cx="323.5" cy="324.03" r="73.5" fill="#09736A"/>
</g>
<path opacity="0.4" d="M299.35 375.02C299.18 375.02 298.953 375.133 298.783 375.133C287.765 369.639 278.834 360.708 273.34 349.69C273.34 349.52 273.453 349.293 273.453 349.123C280.397 351.131 287.456 352.721 294.59 353.883C295.774 361.013 297.363 368.07 299.35 375.02V375.02Z" fill="#15AB89"/>
<path opacity="0.4" d="M374.66 349.746C368.983 361.056 359.716 370.164 348.31 375.643C350.496 368.508 352.218 361.24 353.467 353.883C360.583 352.727 367.623 351.137 374.547 349.123C374.49 349.35 374.66 349.576 374.66 349.746Z" fill="#15AB89"/>
<path opacity="0.4" d="M375.113 300.22C368.011 298.054 360.782 296.332 353.467 295.063C352.258 287.736 350.535 280.502 348.31 273.417C360.042 279.029 369.501 288.487 375.113 300.22V300.22Z" fill="#15AB89"/>
<path opacity="0.4" d="M299.35 274.04C297.355 280.964 295.784 288.004 294.647 295.12C287.285 296.322 280.015 298.026 272.887 300.22C278.366 288.813 287.474 279.546 298.783 273.87C298.953 273.87 299.18 274.04 299.35 274.04Z" fill="#15AB89"/>
<path d="M343.777 293.873C330.633 292.4 317.367 292.4 304.223 293.873C305.581 286.073 307.513 278.383 310.003 270.867C310.069 270.454 310.107 270.038 310.117 269.62C314.658 268.485 319.319 267.896 324 267.863C328.662 267.896 333.304 268.485 337.827 269.62C337.855 270.039 337.912 270.455 337.997 270.867C340.481 278.385 342.412 286.074 343.777 293.873V293.873Z" fill="#15AB89"/>
<path d="M293.343 344.306C285.541 342.955 277.851 341.023 270.337 338.526C269.924 338.46 269.508 338.423 269.09 338.413C267.955 333.871 267.366 329.211 267.333 324.53C267.366 319.867 267.955 315.225 269.09 310.703C269.509 310.674 269.925 310.617 270.337 310.533C277.86 308.069 285.548 306.137 293.343 304.753C291.927 317.899 291.927 331.16 293.343 344.306V344.306Z" fill="#15AB89"/>
<path d="M380.667 324.53C380.634 329.211 380.045 333.871 378.91 338.413C378.492 338.423 378.076 338.46 377.663 338.526C370.138 340.984 362.45 342.915 354.657 344.306C356.13 331.163 356.13 317.896 354.657 304.753C362.457 306.11 370.147 308.042 377.663 310.533C378.069 310.645 378.489 310.702 378.91 310.703C380.041 315.226 380.631 319.867 380.667 324.53V324.53Z" fill="#15AB89"/>
<path d="M343.777 355.187C342.426 362.989 340.494 370.679 337.997 378.193C337.912 378.604 337.855 379.021 337.827 379.44C333.304 380.574 328.662 381.164 324 381.197C319.319 381.164 314.658 380.574 310.117 379.44C310.107 379.022 310.069 378.606 310.003 378.193C307.539 370.669 305.608 362.982 304.223 355.187C310.787 355.97 317.39 356.387 324 356.433C330.61 356.388 337.213 355.972 343.777 355.187V355.187Z" fill="#15AB89"/>
<path d="M345.324 345.853C331.162 347.641 316.832 347.641 302.671 345.853C300.882 331.692 300.882 317.362 302.671 303.2C316.832 301.412 331.162 301.412 345.324 303.2C347.112 317.362 347.112 331.692 345.324 345.853V345.853Z" fill="#15AB89"/>
<defs>
<filter id="filter0_f_14_529" x="0" y="0.529785" width="647" height="647" filterUnits="userSpaceOnUse" color-interpolation-filters="sRGB">
<feFlood flood-opacity="0" result="BackgroundImageFix"/>
<feBlend mode="normal" in="SourceGraphic" in2="BackgroundImageFix" result="shape"/>
<feGaussianBlur stdDeviation="125" result="effect1_foregroundBlur_14_529"/>
</filter>
</defs>
</svg>
