<svg width="635" height="648" viewBox="0 0 635 648" fill="none" xmlns="http://www.w3.org/2000/svg">
<g filter="url(#filter0_f_14_504)">
<ellipse cx="317.5" cy="324.03" rx="67.5" ry="73.5" fill="#09736A"/>
</g>
<path opacity="0.4" d="M335 279.196H301C293.486 279.196 286.279 282.181 280.965 287.495C275.652 292.808 272.667 300.015 272.667 307.53V341.53C272.667 349.044 275.652 356.251 280.965 361.564C286.279 366.878 293.486 369.863 301 369.863H335C342.514 369.863 349.721 366.878 355.035 361.564C360.348 356.251 363.333 349.044 363.333 341.53V307.53C363.333 300.015 360.348 292.808 355.035 287.495C349.721 282.181 342.514 279.196 335 279.196V279.196ZM347.807 337.336C347.807 341.845 346.016 346.169 342.827 349.357C339.639 352.545 335.315 354.336 330.807 354.336H305.193C300.685 354.336 296.361 352.545 293.173 349.357C289.984 346.169 288.193 341.845 288.193 337.336V311.723C288.193 307.214 289.984 302.89 293.173 299.702C296.361 296.514 300.685 294.723 305.193 294.723H330.75C335.259 294.723 339.583 296.514 342.771 299.702C345.959 302.89 347.75 307.214 347.75 311.723V337.336H347.807Z" fill="#15AB89"/>
<path d="M301.34 272.113V279.197H301C298.236 279.186 295.486 279.587 292.84 280.387V272.113C292.84 270.986 293.288 269.905 294.085 269.108C294.882 268.311 295.963 267.863 297.09 267.863C298.217 267.863 299.298 268.311 300.095 269.108C300.892 269.905 301.34 270.986 301.34 272.113V272.113Z" fill="#15AB89"/>
<path d="M322.25 272.113V279.197H313.75V272.113C313.757 270.988 314.208 269.912 315.003 269.116C315.798 268.321 316.875 267.871 318 267.863C319.125 267.871 320.202 268.321 320.997 269.116C321.792 269.912 322.243 270.988 322.25 272.113V272.113Z" fill="#15AB89"/>
<path d="M343.217 272.113V280.387C340.551 279.588 337.783 279.187 335 279.197H334.717V272.113C334.724 270.988 335.174 269.912 335.97 269.116C336.765 268.321 337.842 267.871 338.967 267.863C340.092 267.871 341.168 268.321 341.964 269.116C342.759 269.912 343.209 270.988 343.217 272.113V272.113Z" fill="#15AB89"/>
<path d="M374.667 303.563C374.672 304.123 374.566 304.678 374.354 305.196C374.142 305.714 373.829 306.184 373.434 306.58C373.038 306.976 372.567 307.289 372.049 307.5C371.531 307.712 370.976 307.818 370.417 307.813H363.333V307.53C363.343 304.747 362.942 301.978 362.143 299.313H370.417C370.975 299.312 371.528 299.422 372.044 299.635C372.56 299.848 373.029 300.161 373.423 300.556C373.818 300.951 374.131 301.42 374.345 301.936C374.558 302.452 374.667 303.005 374.667 303.563V303.563Z" fill="#15AB89"/>
<path d="M374.667 324.53C374.667 325.088 374.558 325.641 374.345 326.157C374.131 326.673 373.818 327.142 373.424 327.537C373.029 327.932 372.56 328.245 372.044 328.458C371.528 328.671 370.975 328.781 370.417 328.78H363.333V320.28H370.417C370.976 320.275 371.531 320.381 372.049 320.593C372.567 320.804 373.038 321.117 373.434 321.513C373.829 321.909 374.142 322.379 374.354 322.897C374.566 323.415 374.672 323.97 374.667 324.53Z" fill="#15AB89"/>
<path d="M374.667 345.496C374.667 346.055 374.558 346.608 374.345 347.124C374.131 347.64 373.818 348.108 373.423 348.503C373.029 348.898 372.56 349.211 372.044 349.424C371.528 349.638 370.975 349.747 370.417 349.746H362.143C362.942 347.081 363.343 344.312 363.333 341.53V341.246H370.417C370.976 341.241 371.531 341.347 372.049 341.559C372.567 341.771 373.038 342.084 373.434 342.479C373.829 342.875 374.142 343.346 374.354 343.864C374.566 344.382 374.672 344.937 374.667 345.496Z" fill="#15AB89"/>
<path d="M343.217 368.673V376.946C343.209 378.071 342.759 379.148 341.964 379.943C341.168 380.739 340.092 381.189 338.967 381.196C337.842 381.189 336.765 380.739 335.97 379.943C335.174 379.148 334.724 378.071 334.717 376.946V369.863H335C337.783 369.873 340.551 369.472 343.217 368.673V368.673Z" fill="#15AB89"/>
<path d="M322.307 369.863V376.947C322.307 378.074 321.859 379.155 321.062 379.952C320.265 380.749 319.184 381.197 318.057 381.197C316.93 381.197 315.849 380.749 315.051 379.952C314.254 379.155 313.807 378.074 313.807 376.947V369.863H322.307Z" fill="#15AB89"/>
<path d="M301.34 369.863V376.946C301.34 378.073 300.892 379.154 300.095 379.951C299.298 380.748 298.217 381.196 297.09 381.196C295.963 381.196 294.882 380.748 294.085 379.951C293.288 379.154 292.84 378.073 292.84 376.946V368.673C295.486 369.472 298.236 369.873 301 369.863H301.34Z" fill="#15AB89"/>
<path d="M273.857 299.313C273.058 301.978 272.657 304.747 272.667 307.53V307.813H265.583C264.456 307.813 263.375 307.365 262.578 306.568C261.781 305.771 261.333 304.69 261.333 303.563C261.333 302.436 261.781 301.355 262.578 300.558C263.375 299.761 264.456 299.313 265.583 299.313H273.857Z" fill="#15AB89"/>
<path d="M272.667 320.28V328.78H265.583C264.456 328.78 263.375 328.332 262.578 327.535C261.781 326.738 261.333 325.657 261.333 324.53C261.333 323.403 261.781 322.322 262.578 321.525C263.375 320.728 264.456 320.28 265.583 320.28H272.667Z" fill="#15AB89"/>
<path d="M273.857 349.747H265.583C264.456 349.747 263.375 349.299 262.578 348.502C261.781 347.705 261.333 346.624 261.333 345.497C261.333 344.369 261.781 343.288 262.578 342.491C263.375 341.694 264.456 341.247 265.583 341.247H272.667V341.53C272.657 344.312 273.058 347.081 273.857 349.747V349.747Z" fill="#15AB89"/>
<path d="M330.807 294.723H305.193C300.685 294.723 296.361 296.514 293.172 299.702C289.984 302.89 288.193 307.214 288.193 311.723V337.28C288.193 341.788 289.984 346.113 293.172 349.301C296.361 352.489 300.685 354.28 305.193 354.28H330.75C335.259 354.28 339.583 352.489 342.771 349.301C345.959 346.113 347.75 341.788 347.75 337.28V311.723C347.754 309.494 347.32 307.286 346.47 305.225C345.621 303.164 344.374 301.291 342.801 299.712C341.227 298.134 339.358 296.88 337.3 296.024C335.242 295.168 333.036 294.726 330.807 294.723V294.723ZM327.01 330.423L321.683 339.716C321.311 340.366 320.775 340.906 320.129 341.284C319.483 341.662 318.749 341.864 318 341.87C317.261 341.884 316.534 341.687 315.903 341.303C314.933 340.741 314.223 339.819 313.926 338.738C313.63 337.657 313.77 336.502 314.317 335.523L318.17 328.836H314.827C313.611 328.895 312.402 328.626 311.325 328.058C310.249 327.49 309.344 326.643 308.707 325.606C308.131 324.537 307.848 323.334 307.888 322.119C307.928 320.905 308.288 319.723 308.933 318.693L314.26 309.4C314.824 308.439 315.744 307.739 316.821 307.452C317.897 307.164 319.043 307.312 320.012 307.863C320.98 308.414 321.692 309.324 321.994 310.397C322.297 311.469 322.165 312.617 321.627 313.593L317.773 320.28H321.117C322.332 320.221 323.542 320.49 324.618 321.058C325.695 321.626 326.599 322.473 327.237 323.51C327.839 324.571 328.137 325.778 328.097 326.998C328.057 328.218 327.681 329.404 327.01 330.423V330.423Z" fill="#15AB89"/>
<defs>
<filter id="filter0_f_14_504" x="0" y="0.529785" width="635" height="647" filterUnits="userSpaceOnUse" color-interpolation-filters="sRGB">
<feFlood flood-opacity="0" result="BackgroundImageFix"/>
<feBlend mode="normal" in="SourceGraphic" in2="BackgroundImageFix" result="shape"/>
<feGaussianBlur stdDeviation="125" result="effect1_foregroundBlur_14_504"/>
</filter>
</defs>
</svg>
