<svg width="647" height="648" viewBox="0 0 647 648" fill="none" xmlns="http://www.w3.org/2000/svg">
<g filter="url(#filter0_f_14_537)">
<circle cx="323.5" cy="324.03" r="73.5" fill="#09736A"/>
</g>
<path opacity="0.4" d="M370.657 295.97V312.08L296.933 366.123L282.03 354.96C280.067 353.313 278.461 351.282 277.311 348.992C276.161 346.702 275.491 344.201 275.343 341.643V295.97C275.508 292.62 276.61 289.383 278.523 286.628C280.437 283.873 283.085 281.711 286.167 280.387L317.163 268.77C320.963 267.58 325.036 267.58 328.837 268.77L359.833 280.387C362.915 281.711 365.563 283.873 367.477 286.628C369.39 289.383 370.492 292.62 370.657 295.97V295.97Z" fill="#15AB89"/>
<path d="M370.657 319.827V341.643C370.509 344.202 369.839 346.703 368.689 348.993C367.539 351.283 365.933 353.313 363.97 354.96L332.973 378.137C330.059 380.19 326.565 381.262 323 381.197C319.435 381.262 315.942 380.19 313.027 378.137L302.147 370.033L370.657 319.827Z" fill="#15AB89"/>
<defs>
<filter id="filter0_f_14_537" x="0" y="0.529785" width="647" height="647" filterUnits="userSpaceOnUse" color-interpolation-filters="sRGB">
<feFlood flood-opacity="0" result="BackgroundImageFix"/>
<feBlend mode="normal" in="SourceGraphic" in2="BackgroundImageFix" result="shape"/>
<feGaussianBlur stdDeviation="125" result="effect1_foregroundBlur_14_537"/>
</filter>
</defs>
</svg>
